<svg width="170" height="90" fill="none" xmlns="http://www.w3.org/2000/svg"><rect x=".5" y=".5" width="169" height="89" rx="3.5" stroke="#AFB1B8"/><path d="M81.9769 21.9345h.1366c.253 0 .5262.0254.7969.0483a22.6398 22.6398 0 013.5416.534v-2.8633a21.0929 21.0929 0 00-3.6555-.5823c-.468-.0356-.9663-.0585-1.4773-.0712h-.4275a29.7943 29.7943 0 00-7.3363.946 29.7285 29.7285 0 00-7.7839 3.1659v28.3967a31.6329 31.6329 0 017.4197-2.8913 32.3596 32.3596 0 016.2281-.9561h.0835a24.444 24.444 0 011.065-.0306v-2.909a34.3289 34.3289 0 00-8.0951 1.0756c-.979.2543-1.9251.5289-2.813.8341l-1.0119.3433V24.8334l.4326-.2085a28.2757 28.2757 0 0110.516-2.6828.6296.6296 0 01.0911 0c.4022-.0203.807-.0305 1.2042-.0305h.4553c.21.0051.4199.0102.6299.0229z" fill="#AFB1B8"/><path d="M89.1108 24.9326c-.6653 0-1.3231-.0229-1.958-.0712-.7589-.056-1.5381-.1475-2.2768-.2721a22.9485 22.9485 0 01-1.323-.267v28.0712a22.4048 22.4048 0 005.5654.6561 29.9427 29.9427 0 007.3362-.9435 29.8087 29.8087 0 007.7864-3.1659V21.0496a31.7668 31.7668 0 01-7.4171 2.8938 31.4682 31.4682 0 01-7.7131.9892zm11.2242.4857l1.012-.3408v22.1488l-.433.2085a27.7462 27.7462 0 01-5.1728 1.8589 26.8836 26.8836 0 01-6.6203.8569c-.6678 0-1.3306-.0279-1.9732-.0839l-.6931-.061V27.2288l.807.0534c.5869.0382 1.194.056 1.8542.056a34.2628 34.2628 0 008.4063-1.0782 44.4953 44.4953 0 002.8129-.8417zM67.7373 61.2123a1.4923 1.4923 0 00-.5148-.3478 1.4859 1.4859 0 00-.611-.1074 1.674 1.674 0 00-.6501.122 1.5032 1.5032 0 00-.506.3332 1.464 1.464 0 00-.3263.5085 1.652 1.652 0 00-.1164.6281v3.7941c-.009.2673.042.5333.1493.7781.0896.1944.2188.3677.3795.5086.1516.1276.3296.2197.5211.2695.1845.0519.3751.0784.5666.0789a1.4179 1.4179 0 00.6122-.1323 1.5966 1.5966 0 00.506-.3509 1.6501 1.6501 0 00.3314-.5086 1.5316 1.5316 0 00.1214-.6052v-.4247h-.9917v.3383a.8817.8817 0 01-.0581.3382.6089.6089 0 01-.1442.2136.6076.6076 0 01-.2075.1093.6968.6968 0 01-.2074.0356.5043.5043 0 01-.4655-.2034.8984.8984 0 01-.1315-.5086v-3.5372a1.2078 1.2078 0 01.1214-.5671.5067.5067 0 01.2102-.1844.5028.5028 0 01.2755-.0444.5256.5256 0 01.2475.052.5288.5288 0 01.1952.1616.8058.8058 0 01.1644.5086v.328h.9816V62.41a1.7862 1.7862 0 00-.1215-.6637 1.562 1.562 0 00-.3313-.534zM73.6289 61.1692a1.7652 1.7652 0 00-1.1282-.417 1.7366 1.7366 0 00-.592.1068 1.6058 1.6058 0 00-.5236.3102 1.5597 1.5597 0 00-.3846.5315 1.7718 1.7718 0 00-.1442.7349v3.6389c-.0068.256.0424.5104.1442.7451.0898.1957.221.3693.3846.5086.1516.1407.3296.2497.5236.3204.1897.0698.39.1059.592.1068a1.7138 1.7138 0 00.5919-.1068 1.656 1.656 0 00.5363-.3204 1.5546 1.5546 0 00.3744-.5086 1.754 1.754 0 00.1442-.7451v-3.6389a1.7702 1.7702 0 00-.1442-.7349 1.6411 1.6411 0 00-.3744-.5315zm-.4629 4.9053a.6524.6524 0 01-.1973.5264.7267.7267 0 01-.4668.17.7264.7264 0 01-.4667-.17.6526.6526 0 01-.1973-.5264v-3.6389a.6526.6526 0 01.1973-.5264.7264.7264 0 01.4667-.17.7267.7267 0 01.4668.17.6524.6524 0 01.1973.5264v3.6389zM81.3673 67.6993v-6.8888h-.9537l-1.2522 3.6466h-.0177l-1.2624-3.6466h-.9436v6.8888h.9841v-4.1907h.0177l.9638 2.9625h.4908l.9714-2.9625h.0177v4.1907h.9841zM86.9579 61.2938a1.3658 1.3658 0 00-.5565-.3764 2.1842 2.1842 0 00-.7134-.1068h-1.4622v6.8888h.9816V65.009h.5059c.3063.0139.611-.0508.8854-.1882a1.4299 1.4299 0 00.5388-.5264 1.6467 1.6467 0 00.2252-.6001 4.8985 4.8985 0 00.0531-.7832 3.9324 3.9324 0 00-.0961-.9841 1.4662 1.4662 0 00-.3618-.6332zm-.5059 2.1004a.8679.8679 0 01-.0911.3586.5527.5527 0 01-.253.2416 1.007 1.007 0 01-.4629.0864h-.4478v-2.342h.506a.9413.9413 0 01.4427.0865.5555.5555 0 01.2302.2542c.0536.1211.0829.2516.086.384v.4578c0 .1602.0101.3254 0 .4729h-.0101zM91.6077 60.8105h-.8045l-1.5178 6.8888h.9815l.2884-1.48h1.3382l.2884 1.48h.9816l-1.5558-6.8888zm-.9057 4.4705l.4832-2.4972h.0177l.4807 2.4972h-.9816zM97.9496 64.9606h-.0177l-1.4825-4.1501h-.9435v6.8888h.9815v-4.1424h.0202l1.5002 4.1424h.9233v-6.8888h-.9815v4.1501zM103.948 60.8105l-.79 2.7388h-.02l-.789-2.7388h-1.04l1.348 3.9772v2.9116h.982v-2.9116l1.348-3.9772h-1.039zM65 69.6447h.4731v1.3273h.3212v-1.3273h.4706v-.2721H65v.2721zM68.9767 69.3726l-.6198 1.5994h.3415l.1316-.3636h.6375l.1366.3636h.3491l-.635-1.5994h-.3415zm-.0506.9663l.2176-.5925.2175.5925h-.4351zM72.9079 70.3821h.3694v.206a.6128.6128 0 01-.3795.1348.4036.4036 0 01-.339-.1526.6692.6692 0 01-.1189-.417c0-.356.1543-.534.4604-.534a.3374.3374 0 01.2277.0598.3407.3407 0 01.1341.1944l.3162-.061c-.0683-.3128-.2934-.4704-.678-.4704a.8043.8043 0 00-.559.206.783.783 0 00-.2302.6153.872.872 0 00.2049.6002.7732.7732 0 00.6071.2339.9607.9607 0 00.678-.2543v-.6306h-.6932v.2695zM76.9227 69.3726h-.3238v1.5994h1.1206V70.7h-.7968v-1.3274zM80.3175 69.3726h-.3238v1.5994h.3238v-1.5994zM83.6364 70.4406l-.6552-1.068h-.3137v1.5994h.301v-1.0451l.6426 1.0451h.3212v-1.5994h-.2959v1.068zM86.6368 70.2677h.7969v-.2721h-.7969v-.3509h.8576v-.2721H86.313v1.5994h1.2143V70.7h-.8905v-.4323zM93.9121 70.0032h-.6299v-.6306h-.3213v1.5994h.3213v-.6992h.6299v.6992h.3213v-1.5994h-.3213v.6306zM96.9302 70.2677h.7994v-.2721h-.7994v-.3509h.8601v-.2721h-1.1814v1.5994h1.2117V70.7h-.8904v-.4323zM101.023 70.2676c.279-.0432.42-.1907.42-.445a.3799.3799 0 00-.03-.1996.3725.3725 0 00-.127-.1564.9034.9034 0 00-.468-.0941h-.678v1.5995h.322v-.6688h.063a.4334.4334 0 01.2.0356.337.337 0 01.114.117l.349.5086h.384l-.195-.3128a1.11 1.11 0 00-.354-.384zm-.324-.2212h-.237v-.4018h.253c.11-.0089.221.004.326.0381a.2117.2117 0 01.054.0752.204.204 0 01.016.0913.2134.2134 0 01-.024.0893.213.213 0 01-.061.0697.915.915 0 01-.327.0382zM104.109 70.2677h.797v-.2721h-.797v-.3509h.861v-.2721h-1.184v1.5994H105V70.7h-.891v-.4323z" fill="#AFB1B8"/></svg>