<svg width="170" height="90" fill="none" xmlns="http://www.w3.org/2000/svg"><rect x=".5" y=".5" width="169" height="89" rx="3.5" stroke="#AFB1B8"/><path d="M60.4876 61.2777c.2299.2856.3524.6434.346 1.0106a1.6049 1.6049 0 01-.1232.6996 1.5986 1.5986 0 01-.4129.577 2.3176 2.3176 0 01-1.5582.4662H56v-6.4049h2.6832a2.284 2.284 0 011.4866.4255c.1733.1456.3105.3297.4008.5376.0903.208.1313.4342.1196.6608a1.4873 1.4873 0 01-.3116.9794 1.455 1.455 0 01-.8165.5006c.3634.0666.6914.2606.9255.5476zm-3.213-.9669h1.1469a1.0842 1.0842 0 00.7292-.2128.7601.7601 0 00.1958-.284.7638.7638 0 00.0504-.3418.7875.7875 0 00-.2431-.6257 1.1054 1.1054 0 00-.751-.2159h-1.1282v1.6802zm1.9883 2.4562a.7944.7944 0 00.2114-.2935.7976.7976 0 00.0597-.3573.8078.8078 0 00-.2773-.6571 1.181 1.181 0 00-.7791-.2315h-1.203v1.7616h1.2185a1.2057 1.2057 0 00.7698-.2222zM65.9724 64.0312l-1.4927-2.5032h-.561v2.5032h-1.2839v-6.405h2.4308a2.3904 2.3904 0 011.6922.5444 2.049 2.049 0 01.1807 2.6503 1.971 1.971 0 01-1.1593.6508l1.5894 2.5595h-1.3962zm-2.0537-3.3762h1.0503c.7292 0 1.0938-.3233 1.0938-.9699a.9553.9553 0 00-.0587-.3881.9547.9547 0 00-.2093-.3316 1.1342 1.1342 0 00-.8258-.2597h-1.0627l.0124 1.9493zM72.9908 62.7421h-2.5586l-.4519 1.2891H68.634l2.3498-6.333h1.4554l2.3404 6.333h-1.3463l-.4425-1.2891zm-.3428-.97l-.9349-2.7034-.935 2.7034h1.8699zM81.7759 64.0312h-1.2746l-2.8577-4.3555v4.3555h-1.2715v-6.405h1.2715l2.8577 4.3806v-4.3806h1.2746v6.405zM89.0497 62.4981a2.7565 2.7565 0 01-1.1531 1.1295 3.7426 3.7426 0 01-1.7919.4037h-2.2688v-6.405h2.2688a3.8157 3.8157 0 011.7919.3943 2.7096 2.7096 0 011.1531 1.117 3.7351 3.7351 0 01.3991 1.6802 3.7352 3.7352 0 01-.3991 1.6803zm-1.4585-.1533a2.3524 2.3524 0 00.5638-1.5285c0-.5608-.2-1.103-.5638-1.5285a2.2103 2.2103 0 00-1.5956-.5445h-.885v4.1459h.885a2.2102 2.2102 0 001.5956-.5444zM73.7886 22s16.4515 6.236 16.1025 15.2599v15.263s-16.4391-6.2391-16.0963-15.263L73.7886 22zM104.548 48.9497A22.4855 22.4855 0 01115 45.0824v-4.778c-4.323 1.6728-7.99 4.7058-10.452 8.6453z" fill="#AFB1B8"/><path d="M102.681 50.3889c2.543-5.1412 6.952-9.1085 12.319-11.0859V25.5356s-23.4292 8.8831-22.9337 21.7337v21.7306s1.044-.3974 2.6864-1.1421c0-.6946 0-1.3955.0748-2.0995.4849-5.9658 3.3097-11.4942 7.8535-15.3694z" fill="#AFB1B8"/><path d="M100.453 58.4616a22.492 22.492 0 01.819-4.4494c-2.8291 3.3466-4.5424 7.4994-4.8989 11.8744-.0343.413-.053.826-.0623 1.2516 1.3307-.6415 2.8796-1.4425 4.5062-2.3843a22.5545 22.5545 0 01-.364-6.2923zM101.384 58.5398a21.5944 21.5944 0 00.29 5.6979c6.401-3.8455 13.594-9.7874 13.317-16.9684v-.6257c-4.574.5137-8.853 2.521-12.179 5.7134a21.5132 21.5132 0 00-1.428 6.1828z" fill="#AFB1B8"/></svg>