<svg width="170" height="90" fill="none" xmlns="http://www.w3.org/2000/svg"><rect x=".5" y=".5" width="169" height="89" rx="3.5" stroke="#AFB1B8"/><path d="M85.7404 43.3533c-.418-.6101-.6179-1.3313-.5705-2.0571v-2.9827c0-.9143.1891-1.6091.5673-2.0844.3782-.4754 1.0277-.7121 1.9486-.71.8654 0 1.4796.2022 1.8429.6068.3962.5162.5889 1.1474.5448 1.7841v.7009h-1.548v-.71a3.9613 3.9613 0 00-.0448-.6948.6891.6891 0 00-.2212-.4127.836.836 0 00-.5608-.1608c-.2121-.015-.4225.0456-.5898.1699-.1348.1218-.2247.2813-.2564.4551a3.7847 3.7847 0 00-.0609.7374v3.6197a1.9988 1.9988 0 00.1988 1.0165.734.734 0 00.3089.2463.781.781 0 00.3994.0571c.1983.0155.395-.0434.548-.1638.1261-.1185.2073-.2732.2308-.44a4.3683 4.3683 0 00.048-.7252v-.7342h1.548v.6705c.0435.6637-.1446 1.3225-.5352 1.8752-.3558.4429-.9615.6644-1.8525.6644-.8909 0-1.564-.2366-1.9454-.7282zM92.1856 43.3837c-.391-.4643-.5865-1.1409-.5865-2.036v-3.1373c0-.886.1955-1.5566.5865-2.0117.391-.4551 1.0448-.6817 1.9614-.6796.9102 0 1.5608.2265 1.9518.6796.391.4551.5897 1.1257.5897 2.0117v3.1373c0 .886-.1987 1.5657-.5961 2.0329-.3974.4673-1.0448.7009-1.9454.7009-.9006 0-1.5672-.2366-1.9614-.6978zm2.6825-.7525c.14-.2908.2038-.6093.1859-.9285v-3.8412a1.8428 1.8428 0 00-.1827-.9103.7378.7378 0 00-.3162-.2501.7844.7844 0 00-.4081-.0533.7944.7944 0 00-.4093.0539.7493.7493 0 00-.3182.2495 1.8019 1.8019 0 00-.1859.9103v3.8594a1.858 1.858 0 00.1859.9285.9595.9595 0 00.3265.2301c.1249.0537.2606.0815.3978.0815s.2729-.0278.3978-.0815a.9595.9595 0 00.3265-.2301v-.0182zM98.5505 35.6106h1.6665l1.253 5.7886 1.282-5.7886h1.622l.163 8.3552h-1.198l-.128-5.8068-1.238 5.8068h-.961l-1.2821-5.828-.1185 5.828h-1.2115l.1506-8.3552zM106.406 35.6106h2.596c1.496 0 2.243.7908 2.243 2.3725 0 1.5149-.787 2.2713-2.362 2.2693h-.884v3.7134h-1.603l.01-8.3552zm2.218 3.5708c.158.0191.319.0053.471-.0403.152-.0455.292-.1218.41-.2236.184-.2822.265-.6136.231-.9435a2.8505 2.8505 0 00-.077-.7585.6347.6347 0 00-.118-.2292.6762.6762 0 00-.202-.1682 1.532 1.532 0 00-.715-.1335h-.622v2.4968h.622zM113.556 35.6106h1.721l1.766 8.3552h-1.494l-.349-1.9265h-1.535l-.359 1.9265h-1.516l1.766-8.3552zm1.471 5.4609l-.599-3.5071-.6 3.5071h1.199zM118.469 35.6106h1.122l2.147 4.7662v-4.7662h1.33v8.3552h-1.067l-2.16-4.9755v4.9755h-1.375l.003-8.3552zM126.184 40.7801l-1.786-5.1578h1.504l1.089 3.3131 1.023-3.3131h1.471l-1.763 5.1578v3.1857h-1.538v-3.1857zM88.2146 47.6189v.4369H86.907v3.3951h-.5481v-3.3951h-1.314v-.4369h3.1697zM92.3141 51.4512h-.4231a.1768.1768 0 01-.1186-.0364.1958.1958 0 01-.0705-.088l-.3781-.9102h-1.8141l-.3781.9102a.2578.2578 0 01-.0577.1032.1834.1834 0 01-.1186.0364h-.4231l1.6025-3.8319h.5577l1.6217 3.8167zm-2.6537-1.4229h1.5127l-.641-1.5595a2.9637 2.9637 0 01-.1186-.361c-.0224.0728-.0416.1426-.0609.2033l-.0576.1608-.6346 1.5564zM95.0766 51.0748c.1004.005.2009.005.3013 0a1.6469 1.6469 0 00.2564-.0455 1.82 1.82 0 00.2307-.0698c.0706-.0273.1411-.0607.2148-.094v-.8618h-.641a.1206.1206 0 01-.0865-.0303.0869.0869 0 01-.0321-.0698v-.2943h1.2435v1.4686a2.3546 2.3546 0 01-.3205.182 2.2193 2.2193 0 01-.3557.1305 2.6546 2.6546 0 01-.4006.0789 4.4587 4.4587 0 01-.468.0243 2.2523 2.2523 0 01-.8076-.1426 1.9365 1.9365 0 01-.641-.4006 1.849 1.849 0 01-.4134-.6068 2.0757 2.0757 0 01-.1474-.795 2.1551 2.1551 0 01.1442-.8011 1.759 1.759 0 01.4134-.6069 1.9111 1.9111 0 01.641-.3975 2.4746 2.4746 0 01.8589-.1426c.1492-.0002.2982.011.4455.0334.1303.0201.2581.0526.3814.0971a1.764 1.764 0 01.3205.1517c.0982.0599.1914.1268.2788.2003l-.1538.2367a.14.14 0 01-.052.0525.15.15 0 01-.073.0203.1963.1963 0 01-.0994-.0304 1.923 1.923 0 01-.157-.091 1.3721 1.3721 0 00-.2147-.1032 1.8732 1.8732 0 00-.2949-.0849 2.2546 2.2546 0 00-.407-.0334 1.7433 1.7433 0 00-.6186.1062 1.337 1.337 0 00-.4711.3034c-.1328.1378-.2343.3-.2981.4764a1.9544 1.9544 0 000 1.2775c.0702.1802.1794.3445.3205.4824.1315.1315.291.2349.468.3035a1.653 1.653 0 00.6345.0758zM100.185 51.014h1.75v.4369h-2.2851v-3.832h.5481l-.013 3.3951zM103.756 51.4509h-.548v-3.832h.548v3.832zM105.794 47.6371a.2694.2694 0 01.083.0698l2.343 2.8886a1.0362 1.0362 0 010-.1365v-2.8552h.478v3.8474h-.276a.2415.2415 0 01-.119-.0212.3176.3176 0 01-.086-.0729l-2.34-2.8855v2.9796h-.458v-3.8323h.285a.2334.2334 0 01.09.0182zM112.732 47.6189v.4217h-1.942v1.2653h1.574v.4065h-1.574v1.3078h1.942v.4217h-2.506v-3.823h2.506zM55.3035 23.9539l24.335 6.5414v22.922l-24.335-6.5383V23.9539zM53.7427 22v25.9925l27.4533 7.3818V29.3848L53.7427 22z" fill="#AFB1B8"/><path d="M68.4565 67.4402L41 60.0522V34.0625l27.4565 7.3849v25.9928z" fill="#AFB1B8"/><path d="M54.1978 23.6596l24.0177 6.4593-10.2141 9.6723-24.0208-6.4624 10.2172-9.6692zM53.7427 22L41 34.0631l27.4565 7.3847L81.196 29.3847 53.7427 22zM70.0015 65.978l11.1947-10.6006-11.1947-3.0127V65.978z" fill="#AFB1B8"/></svg>