<svg width="170" height="90" fill="none" xmlns="http://www.w3.org/2000/svg"><rect x=".5" y=".5" width="169" height="89" rx="3.5" stroke="#AFB1B8"/><path d="M71.3454 65.7946a.118.118 0 01.0435.0095.1123.1123 0 01.0362.0248l.2058.2157a1.684 1.684 0 01-.5787.4093 2.0743 2.0743 0 01-.8205.147 2.0112 2.0112 0 01-.7717-.1372 1.673 1.673 0 01-.5813-.3873 1.7463 1.7463 0 01-.3755-.598 2.1632 2.1632 0 01-.1312-.7671 2.0183 2.0183 0 01.1415-.7696 1.7859 1.7859 0 01.3987-.5981 1.8348 1.8348 0 01.6173-.3897 2.2283 2.2283 0 01.7948-.1372 1.9684 1.9684 0 01.7382.125c.2037.0842.3907.2011.553.3456l-.1723.2304a.1752.1752 0 01-.0438.0416.1091.1091 0 01-.0694.0172.1569.1569 0 01-.0746-.0245l-.0926-.0613-.1286-.0784a1.401 1.401 0 00-.1723-.076 1.6784 1.6784 0 00-.2341-.0613 1.6435 1.6435 0 00-.3061-.0245 1.5322 1.5322 0 00-.571.1029 1.2907 1.2907 0 00-.4476.2893 1.342 1.342 0 00-.2906.4607 1.6811 1.6811 0 00-.1055.6079 1.7163 1.7163 0 00.1055.6176c.0627.1691.1598.3248.2855.4583.1178.1245.2638.2217.427.2843.1679.0664.3481.0997.5298.0981.105.0015.21-.005.3138-.0196a1.1673 1.1673 0 00.4759-.1642 1.5694 1.5694 0 00.2032-.152.1529.1529 0 01.0977-.0392zM77.2871 64.7108a2.0289 2.0289 0 01-.1389.7622 1.6555 1.6555 0 01-.3874.5918 1.7535 1.7535 0 01-.608.3885 2.2958 2.2958 0 01-1.5638 0 1.7775 1.7775 0 01-.6045-.3897 1.7405 1.7405 0 01-.3909-.5979 2.1665 2.1665 0 010-1.5269 1.8015 1.8015 0 01.3909-.6004 1.7796 1.7796 0 01.6045-.3749 2.2576 2.2576 0 011.5638 0c.2285.0884.4352.2211.607.3896a1.757 1.757 0 01.3884.5906c.0953.2455.1424.5055.1389.7671zm-.5401 0a1.7586 1.7586 0 00-.0978-.6127 1.2767 1.2767 0 00-.2752-.4582 1.2078 1.2078 0 00-.4347-.2892 1.6579 1.6579 0 00-1.1369 0 1.2074 1.2074 0 00-.4346.2892 1.2475 1.2475 0 00-.2778.4582 1.961 1.961 0 000 1.2254c.058.1696.1527.3257.2778.4583.1207.1252.2692.2231.4346.2867a1.6985 1.6985 0 001.1369 0 1.2022 1.2022 0 00.4347-.2867 1.2973 1.2973 0 00.2752-.4583 1.744 1.744 0 00.0978-.6127zM81.3408 65.3532l.054.1372c.0206-.049.0386-.0931.0591-.1372a1.3197 1.3197 0 01.0669-.1348l1.3144-2.2764c.0257-.0392.0488-.0637.0746-.0711a.3224.3224 0 01.108-.0122h.3884v3.7026h-.4604v-2.7225-.1151a1.0847 1.0847 0 010-.1275l-1.3221 2.3084a.2024.2024 0 01-.0774.0842.2157.2157 0 01-.1129.0309h-.0746a.2123.2123 0 01-.1132-.0305.2004.2004 0 01-.0772-.0846l-1.3606-2.3231v2.9724h-.445v-3.6952h.3884a.3224.3224 0 01.108.0122.1507.1507 0 01.072.0711l1.3427 2.2789a.8049.8049 0 01.0669.1323zM86.2871 65.1692v1.387h-.5144v-3.6977h1.1472a2.2484 2.2484 0 01.6404.0809 1.226 1.226 0 01.4527.2303.9476.9476 0 01.2573.3627c.0607.1508.0904.3114.0874.4729a1.1448 1.1448 0 01-.0952.4729 1.0109 1.0109 0 01-.2778.37 1.2704 1.2704 0 01-.4552.2451 1.995 1.995 0 01-.6199.0857l-.6225-.0098zm0-.3969h.6225a1.3233 1.3233 0 00.3987-.0564.843.843 0 00.2881-.1593.6522.6522 0 00.1749-.245.7676.7676 0 00.0617-.3112.6774.6774 0 00-.0516-.3012.7084.7084 0 00-.1799-.2526c-.1965-.1462-.4433-.217-.6919-.1985h-.6225v1.5242zM93.201 66.5612h-.4064a.1813.1813 0 01-.1132-.0344.226.226 0 01-.0669-.0857l-.3498-.8945H90.508l-.3627.8945a.1991.1991 0 01-.0643.0833.1811.1811 0 01-.1158.0368h-.4064l1.5433-3.703h.535l1.5639 3.703zm-2.5464-1.3749h1.4507l-.6122-1.5072a2.6 2.6 0 01-.1158-.348l-.0591.1936a1.8403 1.8403 0 01-.0566.1569l-.607 1.5047zM95.4233 62.8754a.2227.2227 0 01.0772.0662l2.2506 2.7913v-.1299V62.8582h.4604v3.703h-.2572a.2302.2302 0 01-.1054-.0221.2829.2829 0 01-.0823-.0686l-2.2481-2.7888a1.083 1.083 0 010 .1274v2.7521h-.4604v-3.703h.2727a.2248.2248 0 01.0925.0172zM102.003 65.0884v1.4704h-.515v-1.4704l-1.422-2.23h.46c.04-.0023.079.009.111.0318.028.0238.051.052.069.0833l.89 1.4386c.036.0612.067.1176.093.1715.026.0539.046.1054.064.1569l.067-.1593a1.234 1.234 0 01.088-.1691l.877-1.4484a.3618.3618 0 01.067-.0784.1597.1597 0 01.11-.0367h.466l-1.425 2.2398zM81.0862 56.6443c.2238.0269.4501.049.679.0686 3.4706-1.4792 6.4066-3.9002 8.441-6.9603 2.0344-3.0602 3.077-6.6237 2.9974-10.2453l-3.8248-3.644c.7777 3.8558.4139 7.8417-1.0506 11.5118-1.4646 3.6701-3.9721 6.8795-7.242 9.2692z" fill="#AFB1B8"/><path d="M79.7205 56.4748l.1028.0196c3.4943-2.3812 6.1583-5.7064 7.6477-9.5456 1.4894-3.8391 1.7355-8.0157.7067-11.9896l-5.4478-5.1902c2.2034 4.2663 3.0904 9.0408 2.5577 13.7684-.5328 4.7276-2.4633 9.214-5.5671 12.9374zM98.1962 43.7861c-.9256 3.9793-3.1734 7.568-6.4098 10.2335a20.218 20.218 0 01-3.0454 2.0829c2.6353-.7379 5.0576-2.0427 7.08-3.8135 2.0224-1.7709 3.5909-3.9606 4.585-6.4003l-2.2098-2.1026z" fill="#AFB1B8"/><path d="M97.3292 43.2002l-3.1457-2.9971c-.0602 3.417-1.0798 6.7563-2.9529 9.6708-1.8731 2.9146-4.5313 5.2979-7.6984 6.9025h.0155a18.7608 18.7608 0 002.1117-.1201c2.9598-1.151 5.5745-2.9821 7.6108-5.3301 2.0362-2.348 3.4307-5.1397 4.059-8.126zM80.1757 27.5803L76.4229 24c-3.3548 1.2351-6.2401 3.4064-8.2783 6.2297-2.0381 2.8233-3.1341 6.1671-3.1446 9.5937.0126 3.7863 1.3502 7.4604 3.8012 10.4409 2.4509 2.9805 5.8752 5.0971 9.7309 6.0148 3.4419-3.9953 5.4571-8.9321 5.7526-14.0931.2956-5.161-1.1438-10.2774-4.109-14.6057zM106 42.649c-.014-4.4922-1.893-8.7968-5.227-11.9733-3.3339-3.1765-7.852-4.9667-12.5671-4.9796-2.1788-.0022-4.3391.3809-6.3712 1.1297l22.9773 21.8908c.786-1.9351 1.189-3.9925 1.188-6.0676z" fill="#AFB1B8"/></svg>