<svg width="178" height="98" fill="none" xmlns="http://www.w3.org/2000/svg"><g filter="url(#filter0_d)"><rect x="4.5" y=".5" width="169" height="89" rx="3.5" stroke="#AFB1B8"/><path d="M61.402 36.8306h-.0028c-2.2623 0-4.0962 1.7871-4.0962 3.9917v.0026c0 2.2046 1.8339 3.9918 4.0962 3.9918h.0028c2.2623 0 4.0962-1.7872 4.0962-3.9918v-.0026c0-2.2046-1.8339-3.9917-4.0962-3.9917zM91.6368 35.5545c-.0064-3.0621-1.2573-5.997-3.4789-8.1624C85.9363 25.2266 82.925 24.007 79.7828 24c-3.1431.0056-6.1559 1.2246-8.3787 3.3902-2.2227 2.1656-3.4743 5.1013-3.4808 8.1643v16.8857s23.7108-2.5735 23.7135-16.8831v-.0026zM49 57.9823c.0057 2.1306.8766 4.1724 2.4223 5.6792 1.5457 1.5068 3.6406 2.3562 5.8269 2.3624 2.1859-.0062 4.2804-.8552 5.826-2.3614 1.5457-1.5063 2.4168-3.5474 2.4233-5.6776V46.2356S49 48.0276 49 57.9823zm8.2492 2.1051a2.1998 2.1998 0 01-1.2001-.3548c-.3553-.2313-.6321-.56-.7956-.9447a2.0558 2.0558 0 01-.123-1.2163 2.0894 2.0894 0 01.5912-1.0779 2.1787 2.1787 0 011.1061-.5761 2.2133 2.2133 0 011.2481.1198c.3947.1593.7321.4291.9695.7753.2373.3462.364.7532.364 1.1696a2.0574 2.0574 0 01-.1621.808 2.1035 2.1035 0 01-.4677.6857 2.165 2.165 0 01-.7018.4583 2.2091 2.2091 0 01-.8286.161v-.0079zM74.0891 58.7812h-1.6875v1.7432h-.8789v-4.2656H74.3v.7119h-1.8984v1.1016h1.6875v.7089zm4.2246-.2929c0 .4199-.0742.7881-.2226 1.1045-.1485.3164-.3614.5605-.6387.7324-.2754.1719-.5918.2578-.9492.2578-.3535 0-.669-.085-.9463-.2549-.2774-.1699-.4922-.4121-.6445-.7265-.1524-.3164-.2295-.6797-.2315-1.0899v-.2109c0-.4199.0752-.7891.2256-1.1074.1523-.3204.3662-.5655.6416-.7354.2773-.1719.5937-.2578.9492-.2578.3555 0 .6709.0859.9463.2578.2773.1699.4912.415.6416.7354.1523.3183.2285.6865.2285 1.1045v.1904zm-.8906-.1934c0-.4472-.0801-.7871-.2402-1.0195-.1602-.2324-.3887-.3486-.6856-.3486-.2949 0-.5224.1152-.6826.3457-.1602.2285-.2412.5644-.2432 1.0078v.208c0 .4355.0801.7734.2403 1.0137.1601.2402.3906.3603.6914.3603.2949 0 .5215-.1152.6797-.3457.1582-.2324.2382-.5703.2402-1.0137v-.208zm3.7412 1.1104c0-.166-.0586-.293-.1758-.3809-.1172-.0898-.3281-.1836-.6328-.2812-.3047-.0996-.5459-.1973-.7236-.293-.4844-.2617-.7266-.6143-.7266-1.0576 0-.2305.0645-.4356.1934-.6153.1308-.1816.3174-.3232.5595-.4248.2442-.1015.5176-.1523.8204-.1523.3046 0 .5761.0557.8144.167.2383.1094.4229.2646.5537.4658.1328.2012.1992.4297.1992.6856h-.8789c0-.1954-.0615-.3467-.1845-.4541-.1231-.1094-.2959-.1641-.5186-.1641-.2148 0-.3818.0459-.501.1377-.1191.0898-.1787.209-.1787.3574 0 .1387.0694.2549.208.3486.1407.0938.3467.1817.6182.2637.5.1504.8643.3369 1.0928.5596.2285.2226.3427.5.3427.832 0 .3692-.1396.6592-.4189.8701-.2793.209-.6553.3135-1.1279.3135-.3282 0-.627-.0596-.8965-.1787-.2695-.1211-.4756-.2861-.6182-.4951-.1406-.209-.2109-.4512-.2109-.7266h.8818c0 .4707.2813.7061.8438.7061.209 0 .372-.042.4892-.126.1172-.0859.1758-.2051.1758-.3574zm4.6904-2.4346h-1.3066v3.5537h-.8789v-3.5537h-1.2891v-.7119h3.4746v.7119zm3.0703 1.7051h-1.6875v1.1426h1.9805v.706h-2.8594v-4.2656h2.8536v.7119h-1.9747v1.0166h1.6875v.6885zm2.3877.2871h-.7002v1.5615h-.8789v-4.2656h1.585c.5039 0 .8926.1123 1.166.3369.2735.2246.4102.542.4102.9522 0 .291-.0635.5341-.1905.7294-.125.1934-.3154.3477-.5712.4629l.9228 1.7432v.041h-.9434l-.7998-1.5615zm-.7002-.7119h.709c.2207 0 .3916-.0557.5127-.167.1211-.1133.1817-.2686.1817-.4658 0-.2012-.0576-.3594-.1729-.4746-.1133-.1153-.2881-.1729-.5244-.1729h-.7061v1.2803zm5.3262.7705v1.5029h-.8789v-4.2656h1.6641c.3203 0 .6015.0586.8437.1758.2442.1172.4317.2842.5625.5009.1309.2149.1963.46.1963.7354 0 .418-.1435.748-.4306.9902-.2852.2403-.6807.3604-1.1866.3604h-.7705zm0-.7119h.7852c.2324 0 .4092-.0547.5303-.1641.123-.1094.1845-.2656.1845-.4687 0-.209-.0615-.378-.1845-.5069-.1231-.1289-.293-.1953-.5098-.1992h-.8057v1.3389zm5.5603.3662h-1.6872v1.1426h1.9802v.706h-2.8591v-4.2656h2.8531v.7119h-1.9742v1.0166h1.6872v.6885zm4.078-1.7051h-1.306v3.5537h-.879v-3.5537h-1.289v-.7119h3.474v.7119zm3.071 1.7051h-1.688v1.1426h1.981v.706h-2.86v-4.2656h2.854v.7119h-1.975v1.0166h1.688v.6885zm2.387.2871h-.7v1.5615h-.879v-4.2656h1.585c.504 0 .893.1123 1.166.3369.274.2246.41.542.41.9522 0 .291-.063.5341-.19.7294-.125.1934-.315.3477-.571.4629l.923 1.7432v.041h-.944l-.8-1.5615zm-.7-.7119h.709c.221 0 .392-.0557.513-.167.121-.1133.182-.2686.182-.4658 0-.2012-.058-.3594-.173-.4746-.114-.1153-.288-.1729-.525-.1729h-.706v1.2803zm5.165 1.1543c0-.166-.058-.293-.176-.3809-.117-.0898-.328-.1836-.632-.2812-.305-.0996-.546-.1973-.724-.293-.484-.2617-.727-.6143-.727-1.0576 0-.2305.065-.4356.194-.6153.131-.1816.317-.3232.559-.4248.245-.1015.518-.1523.821-.1523.304 0 .576.0557.814.167.238.1094.423.2646.554.4658.133.2012.199.4297.199.6856h-.879c0-.1954-.061-.3467-.184-.4541-.123-.1094-.296-.1641-.519-.1641-.215 0-.382.0459-.501.1377-.119.0898-.179.209-.179.3574 0 .1387.07.2549.208.3486.141.0938.347.1817.619.2637.5.1504.864.3369 1.092.5596.229.2226.343.5.343.832 0 .3692-.14.6592-.419.8701-.279.209-.655.3135-1.128.3135-.328 0-.627-.0596-.896-.1787-.27-.1211-.476-.2861-.618-.4951-.141-.209-.211-.4512-.211-.7266h.881c0 .4707.282.7061.844.7061.209 0 .372-.042.489-.126.118-.0859.176-.2051.176-.3574z" fill="#AFB1B8"/></g><defs><filter id="filter0_d" x="0" y="0" width="178" height="98" filterUnits="userSpaceOnUse" color-interpolation-filters="sRGB"><feFlood flood-opacity="0" result="BackgroundImageFix"/><feColorMatrix in="SourceAlpha" values="0 0 0 0 0 0 0 0 0 0 0 0 0 0 0 0 0 0 127 0"/><feOffset dy="4"/><feGaussianBlur stdDeviation="2"/><feColorMatrix values="0 0 0 0 0 0 0 0 0 0 0 0 0 0 0 0 0 0 0.25 0"/><feBlend in2="BackgroundImageFix" result="effect1_dropShadow"/><feBlend in="SourceGraphic" in2="effect1_dropShadow" result="shape"/></filter></defs></svg>