<svg width="10" height="15" fill="none" xmlns="http://www.w3.org/2000/svg"><path d="M8.5.0609h-7C.6728.0609 0 .6889 0 1.461v12.1355c0 .7721.6728 1.4003 1.5 1.4003h7c.8271 0 1.5-.6282 1.5-1.4003V1.4611C10 .689 9.3271.061 8.5.061zm-7 .9335h7c.2759 0 .5.2092.5.4667v9.8018H1V1.4611c0-.2575.2241-.4667.5-.4667zm7 13.069h-7c-.2759 0-.5-.2093-.5-.4668v-1.4002h8v1.4002c0 .2575-.2241.4668-.5.4668z" fill="#757575"/><path d="M2.3535 12.7999c.1953.1823.1953.4779 0 .6603-.1952.1823-.5118.1823-.707 0-.1953-.1824-.1953-.478 0-.6603.1952-.1824.5118-.1824.707 0z" fill="#757575"/></svg>