<svg aria-hidden="true" style="position:absolute;width:0;height:0" xmlns="http://www.w3.org/2000/svg" overflow="hidden"><defs><symbol id="icon-antenna1" viewBox="0 0 32 32"><path d="M30.773 22.098l-8.443-8.505.937-4.616c.225.09.485.144.758.146h.033c1.192 0 2.159-.967 2.159-2.159s-.967-2.159-2.159-2.159c-1.192 0-2.159.967-2.159 2.159 0 .259.046.508.13.739l-.005-.015-4.96.606L8.973.161a.53.53 0 00-.376-.16.5362.5362 0 00-.373.155L6.712 1.66c-.096.097-.156.23-.156.377s.06.281.156.377l.814.825C6.383 5.301 5.71 7.761 5.71 10.378c0 4.106 1.656 7.824 4.336 10.525l-.001-.001c.043.041.092.074.146.097a2.986 2.986 0 00-.052.546v6.188h-6.4c-1.472.001-2.666 1.194-2.667 2.666v1.067c0 .295.239.534.534.534H26.14c.294 0 .533-.239.533-.534v-1.067c-.002-1.472-1.195-2.665-2.666-2.666h-6.4v-2.742c1.003.21 2.024.317 3.049.32 2.58-.003 5.005-.663 7.117-1.822l-.077.039.818.823c.099.101.235.159.376.16.14-.001.274-.057.373-.155l1.512-1.504c.096-.097.156-.23.156-.377s-.06-.281-.156-.377zM23.28 6.233c.193-.192.459-.31.752-.31.589 0 1.067.478 1.067 1.066s-.477 1.066-1.067 1.066h-.004c-.587-.003-1.061-.479-1.061-1.066 0-.295.12-.563.314-.756h-.002zm-1.256 3.504l-.598 2.946-1.175-1.183 1.774-1.763zm-.605-.902l-1.92 1.909-1.486-1.493 3.406-.416zM24.004 28.8c.884 0 1.6.716 1.6 1.6v.534H2.138V30.4c0-.884.716-1.6 1.6-1.6h20.267zm-7.466-2.134v1.067h-5.334v-1.067h5.334zM11.204 25.6v-4.053c0-1.294 1.196-2.346 2.667-2.346s2.667 1.053 2.667 2.346V25.6h-5.334zm6.4-1.696v-2.357c0-1.882-1.675-3.413-3.733-3.413h-.058c-1.353 0-2.54.707-3.213 1.771l-.009.016c-2.36-2.482-3.812-5.846-3.812-9.55 0-2.314.567-4.496 1.569-6.414l-.036.077 18.602 18.709c-1.823.947-3.979 1.502-6.266 1.502-1.079 0-2.128-.124-3.136-.357l.093.018zm11.289-.684L7.836 2.039l.754-.752 7.935 7.98c.004 0 .006.007.01.01l13.114 13.191-.757.752z"/><path d="M13.876 20.267h-.007c-.884 0-1.6.716-1.6 1.6s.715 1.599 1.597 1.6h.007c.884 0 1.6-.716 1.6-1.6s-.715-1.599-1.598-1.6zm.373 1.978a.5297.5297 0 01-.376.155c-.295 0-.534-.239-.534-.534s.238-.533.532-.533a.533.533 0 01.531.533c0 .148-.06.282-.157.378h.005z"/></symbol><symbol id="icon-astronaut1" viewBox="0 0 32 32"><path fill="var(--color1, #2196f3)" d="M31.974 4.524c-.064-.191-.227-.332-.427-.362h-.003l-1.91-.278-.855-1.731c-.179-.365-.777-.365-.956 0l-.855 1.731-1.91.278a.5352.5352 0 00-.43.359l-.001.004a.5342.5342 0 00.135.547l1.383 1.348-.326 1.903c-.034.2.048.402.212.522.087.064.195.102.313.102.091 0 .177-.023.252-.063l-.003.001 1.709-.899 1.709.899c.078.041.164.061.249.061h.001c.294 0 .533-.238.533-.533 0-.032-.003-.064-.008-.094v.003l-.326-1.903 1.383-1.348a.5331.5331 0 00.161-.382c0-.059-.009-.115-.027-.168l.001.004zm-2.463 1.327a.5331.5331 0 00-.161.382c0 .032.003.063.008.094v-.003l.191 1.114-1-.526a.5203.5203 0 00-.248-.061H28.3c-.085 0-.17.02-.249.061l-1.001.526.191-1.114a.5291.5291 0 00-.153-.472l-.81-.789 1.119-.163a.5335.5335 0 00.4-.289l.001-.003.5-1.013.5 1.013c.078.157.228.267.402.292l1.119.163-.809.789zm-3.378 14.671h-1.067v1.067h1.067v-1.067zm0 2.134h-1.067v1.067h1.067v-1.067zm1.067-1.067h-1.067v1.067H27.2v-1.067zm-2.133 0H24v1.067h1.067v-1.067zm-2.667 4.8h-1.067v1.067H22.4v-1.067zm0 2.133h-1.067v1.067H22.4v-1.067zM23.467 27.456H22.4v1.067h1.067v-1.067zm-2.134 0h-1.067v1.067h1.067v-1.067zM16 24.256h-1.067v1.067H16v-1.067zm0 2.133h-1.067v1.067H16v-1.067zm1.067-1.067H16v1.067h1.067v-1.067zm-2.134 0h-1.067v1.067h1.067v-1.067zm-9.067-19.2H4.799v1.067h1.067V6.122zm0 2.133H4.799v1.067h1.067V8.255zm1.067-1.066H5.866v1.067h1.067V7.189zm-2.133 0H3.733v1.067H4.8V7.189z"/><path fill="var(--color2, #212121)" d="M24.715 14.159c-.287-.388-.709-.637-1.188-.705-.481-.068-.956.058-1.34.352l-1.252.96-1.898 1.417-1.358-.541c2.421-1.086 4.114-3.508 4.114-6.32 0-3.823-3.123-6.933-6.961-6.933s-6.961 3.11-6.961 6.933c0 1.386.414 2.674 1.12 3.758l-2.769-.024c-.009 0-.015.004-.023.005a.5547.5547 0 00-.159.032l.004-.001c-.013.005-.026.008-.038.013-.006.003-.013.003-.019.006l-3.233 1.596c-.001 0-.001 0-.001.001l-1.893.911a.4288.4288 0 00-.064.036l.001-.001c-.755.502-1.012 1.489-.598 2.295.22.429.595.745 1.056.889.161.052.347.083.539.083.29 0 .577-.071.839-.211l1.388-.738 2.264-1.169 1.357-.008L2.2 22.211c0 .001-.001.001-.002.001L.859 23.545c-.316.315-.49.732-.49 1.178s.174.863.49 1.179c.325.323.752.485 1.179.485s.854-.162 1.18-.485l1.314-1.309 1.741-1.3.901.897-1.762 1.754c0 .001-.001.001-.002.001l-1.339 1.333c-.316.315-.49.732-.49 1.178s.174.863.49 1.179c.325.323.753.485 1.18.485s.855-.162 1.18-.485l3.482-3.467c.001-.001.001-.001.001-.002l1.01-1-.004-.004c.006-.006.015-.009.022-.015l5.166-5.658 3.471.494c.025.004.05.005.075.005.065 0 .127-.015.187-.038.018-.006.033-.015.05-.023.019-.01.039-.015.058-.027l3.213-2.133c.012-.008.018-.021.029-.029.013-.01.029-.014.041-.026l1.271-1.191c.662-.62.753-1.635.212-2.362zM2.13 17.77a.714.714 0 01-.558.052.7167.7167 0 01-.427-.358.714.714 0 01.214-.902l1.314-.632.449 1.313-.992.527zm3.498-1.828l-1.548.8-.439-1.283 2.027-1.001-.04 1.484zm15.099-6.62c0 .918-.219 1.785-.599 2.559l-4.181-1.899c-.044-.573-.341-1.075-.788-1.388l1.464-4.86c2.378.756 4.105 2.974 4.105 5.588zm-11.789 0c0-3.235 2.644-5.867 5.894-5.867.253 0 .5.021.745.052l-1.432 4.754c-.019-.001-.037-.006-.057-.006-1.033 0-1.873.837-1.873 1.867s.84 1.867 1.873 1.867c.694 0 1.294-.383 1.618-.945l3.862 1.755c-1.075 1.446-2.795 2.39-4.737 2.39-3.25 0-5.894-2.632-5.894-5.867zm5.956.8c0 .441-.362.8-.806.8s-.806-.359-.806-.8c0-.441.362-.8.806-.8s.806.359.806.8zM2.465 25.146c-.236.234-.619.234-.854.001-.114-.114-.176-.263-.176-.423s.062-.309.176-.421l.962-.959.851.848-.959.955zm3.214 3.734c-.236.234-.619.235-.855.001-.114-.114-.176-.263-.176-.423s.062-.309.176-.421l.963-.959.852.848-.96.955zm3.481-3.469c-.001 0-.001 0-.002.001l-1.765 1.76-.852-.848 1.763-1.756c.001-.001.001-.001.002-.001.04-.04.065-.088.09-.135.007-.014.02-.026.026-.04.017-.041.019-.085.026-.129.003-.025.014-.047.014-.073 0-.036-.013-.07-.02-.106-.006-.032-.006-.065-.019-.095-.02-.05-.055-.094-.091-.138-.01-.012-.014-.027-.025-.038h-.001c-.001 0-.001-.002-.001-.002l-1.607-1.6c-.017-.017-.039-.024-.058-.038a.5067.5067 0 00-.087-.058c-.03-.015-.061-.024-.093-.033a.5073.5073 0 00-.103-.02.5002.5002 0 00-.095.005.5307.5307 0 00-.104.02c-.034.011-.063.027-.094.045-.02.011-.042.015-.061.029L4.23 23.485l-.901-.897 2.399-2.386 4.361 4.289-.928.919zm6.819-7.017c-.015-.002-.03.004-.045.003-.008 0-.017-.001-.026-.001-.031 0-.062.003-.092.008h.003a.5364.5364 0 00-.088.021c-.034.012-.065.028-.097.047s-.059.039-.084.062c-.013.011-.028.017-.04.029l-4.698 5.146-4.328-4.257 2.833-2.818c.209-.208.21-.546.002-.755a.5314.5314 0 00-.381-.156v-.001l-2.219.013.028-1.607 3.104.027c1.265 1.294 3.029 2.101 4.981 2.101.437 0 .864-.045 1.279-.123.04.032.079.065.13.085l2.41.96.152.758.178.885-3.003-.427zm4.041.178l-.313-1.558 1.446-1.08.947 1.257-2.08 1.381zm3.754-2.831l-.838.785-.931-1.236.831-.637c.155-.119.351-.168.543-.143.193.027.364.128.48.284.217.292.18.699-.085.947z"/><path fill="var(--color2, #212121)" d="M13.602 18.544l-2.143-2.133c-.207-.207-.545-.207-.753 0l-2.142 2.133a.532.532 0 00-.157.378c0 .142.056.278.157.378l2.142 2.133c.104.103.241.155.377.155s.273-.052.376-.155l2.143-2.133a.532.532 0 00.157-.378c0-.142-.057-.278-.157-.378zm-2.519 1.759l-1.387-1.381 1.387-1.381 1.387 1.381-1.387 1.381zm6.081-15.232l-.258 1.036c.071.018 1.738.452 1.738 2.149h1.067c0-2.017-1.666-2.965-2.547-3.185zm2.547 4.251h-1.067v1.067h1.067V9.322z"/></symbol><symbol id="icon-client1" viewBox="0 0 32 32"><path fill="var(--color3, #afb1b8)" d="M5.44 0l4.677 4.428h13.046v12.351l4.677 4.428V.001H5.44z"/><path fill="var(--color3, #afb1b8)" d="M1.6 4.241v20.6h21.76v-8.188L10.255 4.247 1.6 4.242zm17.615 17.587H5.043V7.974h1.002V20.89h13.17v.938zM7.866 28.662l.523-1.078h.438l-.762 1.438v.837h-.397v-.837l-.764-1.438h.439l.524 1.078zm2.247.667h-.881l-.184.53h-.411l.859-2.275h.355l.861 2.275H10.3l-.186-.53zm-.77-.319h.659l-.33-.944-.33.944zm2.328.234v-.004c0-.106.032-.205.087-.287l-.001.002c.057-.089.17-.193.339-.314-.088-.111-.151-.206-.186-.284s-.052-.154-.052-.227c0-.178.054-.319.162-.422s.254-.156.438-.156c.166 0 .301.049.406.147.106.097.159.217.159.361v.004c0 .096-.027.185-.073.261l.001-.002c-.048.079-.127.158-.236.238l-.155.113.439.519c.064-.125.095-.264.095-.417h.33c0 .28-.066.51-.197.689l.334.395h-.441l-.128-.152c-.162.122-.356.183-.581.183s-.405-.059-.541-.178c-.134-.12-.202-.276-.202-.467zm.753.343c.128 0 .248-.043.359-.128l-.497-.586-.048.034c-.125.095-.188.203-.188.325 0 .105.034.191.102.256s.158.098.272.098zm-.209-1.466c0 .087.054.197.161.33l.173-.119.048-.039c.065-.057.097-.131.097-.22 0-.059-.022-.11-.067-.152-.045-.043-.102-.064-.17-.064-.074 0-.133.025-.177.075s-.066.113-.066.189zm4.133.997c-.023.243-.113.432-.269.569-.156.135-.364.203-.623.203-.181 0-.341-.043-.48-.128-.137-.086-.244-.209-.319-.367s-.114-.342-.117-.552v-.212c0-.215.038-.404.114-.567s.185-.29.327-.378c.143-.088.307-.133.494-.133.251 0 .453.068.606.205s.242.329.267.578h-.394c-.019-.164-.067-.281-.144-.353-.076-.073-.188-.109-.336-.109-.172 0-.304.063-.397.189-.092.125-.139.309-.141.552v.202c0 .246.044.433.131.563s.218.194.387.194c.155 0 .272-.035.35-.105s.128-.186.148-.348h.394zm2.17-.338c0 .223-.039.419-.116.588-.077.168-.188.297-.331.388-.143.09-.307.134-.494.134-.184 0-.349-.045-.494-.134-.144-.091-.255-.219-.334-.386-.078-.167-.118-.359-.119-.576v-.128c0-.222.039-.418.117-.588.079-.17.19-.299.333-.389.144-.091.308-.136.494-.136s.349.045.492.134c.144.088.255.217.333.384s.118.361.119.583v.127zm-.396-.118c0-.252-.048-.445-.144-.58-.095-.134-.23-.202-.405-.202-.171 0-.305.067-.402.202-.096.133-.145.322-.147.567v.131c0 .25.048.443.145.58.098.136.233.205.406.205.175 0 .309-.067.403-.2.095-.133.142-.328.142-.584v-.119z"/></symbol><symbol id="icon-client2" viewBox="0 0 32 32"><path fill="var(--color3, #afb1b8)" d="M14.14 1.806h.084c.156 0 .324.016.49.03.807.058 1.552.175 2.274.348l-.095-.019V.403c-.652-.172-1.42-.299-2.207-.356l-.042-.002c-.288-.022-.595-.036-.909-.044h-.263c-1.607.006-3.162.218-4.643.611l.128-.029c-1.816.46-3.411 1.128-4.875 1.995l.085-.046v17.475c1.312-.729 2.832-1.338 4.431-1.75l.135-.029c1.123-.3 2.434-.51 3.78-.586l.052-.002h.051c.191-.01.42-.017.65-.019h.006v-1.79c-1.78.024-3.493.264-5.129.695l.147-.033c-.602.157-1.185.325-1.731.513l-.623.211V3.592l.266-.128c1.89-.918 4.096-1.512 6.424-1.649l.047-.002c.008-.001.018-.001.028-.001s.02 0 .029.001h-.001c.248-.012.497-.019.741-.019h.28c.129.003.258.006.388.014z"/><path fill="var(--color3, #afb1b8)" d="M18.53 3.651c-.409 0-.814-.014-1.205-.044-.467-.034-.947-.091-1.401-.167-.363-.061-.638-.119-.91-.184l.096.019V20.55c.995.257 2.137.404 3.314.404h.117-.006c1.607-.007 3.162-.218 4.643-.609l-.128.029c1.817-.461 3.412-1.129 4.877-1.995l-.085.047V1.263c-1.312.728-2.831 1.338-4.429 1.751l-.136.03c-1.423.381-3.057.602-4.743.609h-.004zm6.907.299l.623-.21v13.63l-.266.128c-.903.442-1.962.834-3.065 1.118l-.119.026c-1.221.329-2.624.521-4.07.527h-.004c-.411 0-.819-.017-1.214-.052l-.427-.038V5.062l.497.033c.361.024.735.034 1.141.034 1.841-.007 3.622-.248 5.32-.696l-.147.033c.777-.203 1.355-.38 1.924-.576l-.193.058zM5.377 25.977a.915.915 0 00-.311-.212l-.006-.002a.9.9 0 00-.343-.067c-.012 0-.023 0-.035.001h.002-.014c-.139 0-.272.028-.393.078l.007-.003a.9312.9312 0 00-.311.205.8986.8986 0 00-.199.307l-.002.006c-.045.111-.072.24-.072.375v.012-.001 2.335c-.006.165.026.328.092.479.055.12.135.226.234.313.093.079.203.135.321.166.114.032.231.048.349.049h.009c.134 0 .26-.03.373-.084l-.005.002a.99.99 0 00.311-.216c.084-.088.153-.192.201-.306l.003-.007a.9335.9335 0 00.075-.368v-.266h-.61v.222c0 .07-.013.137-.037.198l.001-.004a.3669.3669 0 01-.089.131.396.396 0 01-.125.067l-.003.001a.4275.4275 0 01-.127.022.3093.3093 0 01-.162-.025l.002.001a.319.319 0 01-.126-.1l-.001-.001a.5477.5477 0 01-.081-.289c0-.008 0-.017.001-.025v.001-2.177-.023c0-.119.028-.231.077-.33l-.002.004a.321.321 0 01.127-.113l.002-.001c.039-.019.084-.03.132-.03.013 0 .026.001.039.002h-.002.012c.051 0 .1.012.143.033l-.002-.001c.048.024.089.057.12.099l.001.001c.063.082.101.187.101.3v.013-.001.202h.604v-.238-.01c0-.143-.027-.281-.077-.406l.003.007a.9679.9679 0 00-.204-.329zm3.625-.027a1.083 1.083 0 00-.694-.257c-.131.001-.256.025-.372.068l.007-.002a.986.986 0 00-.323.192l.001-.001a.9667.9667 0 00-.234.321l-.002.006a1.074 1.074 0 00-.089.431v.022-.001 2.268c0 .155.033.303.092.436l-.003-.007c.055.12.136.227.237.313a.939.939 0 00.322.197c.117.043.24.065.364.066.131 0 .256-.024.372-.068l-.007.002c.127-.047.237-.114.331-.198l-.001.001a.958.958 0 00.228-.307l.002-.006c.056-.127.089-.274.089-.43v-.03.002-2.239-.021c0-.156-.033-.304-.092-.438l.003.007a1.027 1.027 0 00-.23-.327zm-.284 3.019c.001.01.001.022.001.034 0 .114-.047.216-.123.289a.4455.4455 0 01-.287.105c-.11 0-.21-.04-.288-.105l.001.001a.4007.4007 0 01-.123-.29c0-.012.001-.024.002-.036v.002-2.239c-.001-.01-.001-.022-.001-.034 0-.114.047-.216.123-.289a.4455.4455 0 01.287-.105c.11 0 .21.04.288.105l-.001-.001c.076.073.123.176.123.29 0 .012-.001.024-.002.036v-.002 2.239zm5.046 1V25.73h-.587l-.771 2.244h-.011l-.777-2.244h-.581v4.239h.606V27.39h.011l.593 1.823h.302l.598-1.823h.011v2.579h.606zm3.441-3.942a.839.839 0 00-.337-.23l-.006-.002c-.124-.042-.267-.066-.416-.066h-.024.001-.9v4.239h.604v-1.656h.311c.189.009.376-.031.545-.116a.8868.8868 0 00.329-.32l.002-.004c.067-.106.115-.23.138-.363l.001-.006c.021-.134.033-.287.033-.444v-.04.002c.001-.021.001-.045.001-.069 0-.19-.022-.375-.063-.552l.003.016a.906.906 0 00-.223-.39zm-.311 1.293a.5417.5417 0 01-.057.224l.001-.003a.3442.3442 0 01-.154.148l-.002.001a.6092.6092 0 01-.253.054c-.011 0-.022 0-.033-.001h.002-.276v-1.441h.311c.008 0 .018-.001.028-.001.089 0 .172.02.248.055l-.004-.002c.062.036.111.09.141.154l.001.002c.033.075.051.155.053.236v.282c0 .099.006.2 0 .291h-.006zm3.172-1.59h-.495l-.934 4.239h.604l.177-.911h.823l.177.911h.604l-.957-4.239zm-.557 2.751l.297-1.537h.011l.296 1.537h-.604zm4.46-.198h-.011l-.912-2.554h-.581v4.239h.604v-2.549h.012l.923 2.549h.568v-4.239h-.604v2.554zm3.691-2.553l-.486 1.685h-.012l-.486-1.685h-.64l.83 2.447v1.792h.604v-1.792l.83-2.447h-.64zM3.692 31.166h.291v.817h.198v-.817h.29v-.167h-.778v.167zm2.447-.167l-.381.984h.21l.081-.224h.392l.084.224h.215l-.391-.984h-.21zm-.031.594l.134-.365.134.365h-.268zm2.451.027h.227v.127a.3778.3778 0 01-.233.083h-.014a.2466.2466 0 01-.194-.094.41.41 0 01-.074-.235c0-.008 0-.015.001-.023v.001c0-.219.095-.329.283-.329.006-.001.013-.001.021-.001.045 0 .086.014.12.038h-.001c.04.029.07.07.082.118v.001l.195-.038c-.042-.192-.181-.289-.417-.289h-.013a.492.492 0 00-.331.127.4818.4818 0 00-.111.17l-.001.003a.4794.4794 0 00-.031.169c0 .013.001.025.001.038v-.002c0 .007-.001.015-.001.023 0 .132.048.253.127.347l-.001-.001c.087.089.208.145.342.145.011 0 .022 0 .033-.001h-.001.016c.155 0 .296-.06.401-.157v-.388h-.427v.166zm2.47-.621h-.199v.984h.69v-.167h-.49v-.817zm2.089 0h-.199v.984h.199v-.984zm2.043.657l-.403-.657h-.193v.984h.185v-.643l.395.643h.198v-.984h-.182v.657zm1.846-.107h.49v-.167h-.49v-.216h.528v-.167h-.727v.984h.747v-.167h-.548v-.266zm4.477-.162h-.388v-.388h-.198v.984h.198v-.43h.388v.43h.198v-.984h-.198v.388zm1.858.162h.492v-.167h-.492v-.216h.529v-.167h-.727v.984h.746v-.167h-.548v-.266zm2.518 0c.171-.027.258-.117.258-.274a.233.233 0 00-.096-.219h-.001a.555.555 0 00-.25-.059c-.013 0-.027 0-.04.001h.002-.417v.984h.198v-.412h.055c.039 0 .075.008.108.023l-.002-.001c.029.018.053.042.07.071l.001.001.215.313h.237l-.12-.192a.7042.7042 0 00-.215-.235l-.002-.002zm-.199-.136h-.146v-.247h.156a.5154.5154 0 01.205.024l-.004-.001c.027.024.043.058.043.096 0 .043-.021.08-.052.104a.5387.5387 0 01-.165.025c-.013 0-.025 0-.038-.001h.002zm2.099.136h.49v-.167h-.49v-.216h.529v-.167h-.729v.984h.747v-.167h-.548v-.266z"/></symbol><symbol id="icon-client3" viewBox="0 0 32 32"><path fill="var(--color3, #afb1b8)" d="M5.466 31.103c.012 0 .023.003.033.007h-.001a.106.106 0 01.027.018l.153.161c-.118.128-.262.231-.423.301l-.008.003c-.169.07-.366.11-.572.11-.014 0-.027 0-.041-.001h.002-.03c-.196 0-.383-.038-.554-.106l.01.004a1.2498 1.2498 0 01-.432-.288 1.289 1.289 0 01-.276-.436l-.003-.009c-.062-.164-.098-.354-.098-.552v-.019-.019c0-.199.039-.389.109-.563l-.004.01c.071-.174.172-.322.297-.445.128-.123.281-.221.45-.287l.009-.003c.17-.065.367-.102.573-.102h.019-.001.035c.185 0 .362.034.525.097l-.01-.003c.152.063.291.15.412.257l-.128.171a.1568.1568 0 01-.032.031.084.084 0 01-.044.013h-.008a.116.116 0 01-.056-.018l-.069-.046-.096-.058a.9131.9131 0 00-.121-.054l-.007-.002a1.1073 1.1073 0 00-.166-.044l-.008-.001a1.1527 1.1527 0 00-.211-.018h-.018.001-.014c-.148 0-.289.028-.419.079l.008-.003a.9758.9758 0 00-.333.215.994.994 0 00-.214.336l-.002.007c-.05.13-.079.28-.079.437v.017-.001c-.002.156.024.312.079.46.047.126.119.242.212.341.088.093.196.165.318.212.114.046.246.073.384.073h.01-.001c.078.001.156-.004.234-.015a.8727.8727 0 00.358-.124l-.004.002c.054-.034.104-.072.151-.113a.1164.1164 0 01.073-.029zm4.422-.807v.018c0 .198-.038.386-.107.559l.004-.01c-.067.172-.165.319-.288.44-.126.123-.276.221-.444.286l-.009.003c-.173.065-.373.102-.582.102s-.409-.037-.594-.106l.012.004a1.3313 1.3313 0 01-.45-.29 1.3004 1.3004 0 01-.288-.436l-.003-.009c-.065-.169-.103-.364-.103-.568s.038-.399.107-.579l-.004.011c.07-.174.168-.322.291-.447.126-.119.275-.213.441-.276l.009-.003c.173-.066.373-.104.582-.104s.409.038.593.108l-.012-.004c.17.066.324.165.452.29.122.122.22.268.286.431l.003.009c.071.183.106.376.103.571zm-.402 0v-.025c0-.154-.027-.303-.076-.44l.003.009a.9539.9539 0 00-.205-.341l.001.001a.9136.9136 0 00-.317-.213l-.006-.002c-.126-.047-.271-.075-.423-.075s-.297.027-.431.078l.009-.003a.8974.8974 0 00-.323.215.9255.9255 0 00-.205.334l-.002.006c-.046.136-.073.293-.073.456s.027.32.076.466l-.003-.01c.043.126.114.242.207.341a.895.895 0 00.317.211l.006.002c.126.046.271.073.423.073s.297-.027.432-.076l-.009.003a.893.893 0 00.323-.213.983.983 0 00.203-.334l.002-.007c.046-.128.073-.275.073-.429v-.028.001zm3.419.478l.04.102c.015-.036.029-.069.044-.102.017-.04.034-.073.052-.105l-.003.005.978-1.694c.019-.029.036-.047.056-.053s.043-.009.067-.009h.014-.001.289v2.755h-.343v-2.112c-.001-.014-.001-.031-.001-.047s.001-.033.002-.05v.002l-.984 1.718a.1488.1488 0 01-.057.062h-.001a.1637.1637 0 01-.083.023H12.915c-.03 0-.058-.008-.082-.023h.001a.1545.1545 0 01-.057-.062v-.001l-1.013-1.729v2.212h-.331v-2.75h.303c.024 0 .047.003.068.01h-.002c.024.011.042.03.053.052v.001l.999 1.696c.018.028.035.061.048.094l.001.004zm3.681-.136v1.032h-.383v-2.752h.885c.159 0 .312.022.458.063l-.012-.003c.13.035.242.094.339.173l-.002-.001c.083.072.148.163.19.265l.002.005c.045.112.067.232.065.352v.012c0 .123-.026.24-.073.346l.002-.005a.746.746 0 01-.206.274l-.001.001a.9484.9484 0 01-.332.181l-.007.002c-.129.041-.278.064-.431.064h-.031l-.462-.007zm0-.296H17.061c.102 0 .2-.015.292-.044l-.007.002a.6246.6246 0 00.215-.119l-.001.001c.056-.049.1-.11.129-.179L17.69 30a.5601.5601 0 00.046-.224v-.007c.001-.009.001-.019.001-.029 0-.07-.014-.137-.041-.198l.001.003a.5437.5437 0 00-.133-.188.7662.7662 0 00-.515-.148h-.463v1.134zm5.145 1.331h-.307a.139.139 0 01-.08-.026.1682.1682 0 01-.049-.063v-.001l-.26-.666h-1.307l-.27.666a.1623.1623 0 01-.047.062.1345.1345 0 01-.082.027h-.307l1.148-2.756h.398l1.164 2.756zm-1.895-1.023h1.08l-.456-1.122a1.845 1.845 0 01-.083-.245l-.003-.013-.044.144c-.015.049-.03.088-.046.126l.003-.009-.452 1.12zm3.549-1.719a.169.169 0 01.057.049l1.675 2.077v-2.139h.343v2.756h-.196a.1644.1644 0 01-.074-.017h.001a.2003.2003 0 01-.061-.051l-1.673-2.075c.001.014.001.031.001.047s0 .033-.002.05v-.002 2.048h-.343v-2.756H23.321c.023 0 .045.005.065.013h-.001zm4.896 1.646v1.094h-.383v-1.094l-1.059-1.66H27.19c.028 0 .054.009.075.024.02.017.038.038.051.061l.001.001.662 1.071c.02.033.043.075.064.118l.004.01c.019.04.034.078.048.117l.05-.119a.8776.8776 0 01.068-.13l-.002.004.653-1.078a.307.307 0 01.049-.058.1194.1194 0 01.076-.027h.352l-1.06 1.667zm-15.566-6.284c.167.02.335.036.505.051 2.583-1.101 4.768-2.902 6.282-5.18s2.29-4.929 2.231-7.624l-2.846-2.712c.579 2.869.308 5.836-.782 8.567s-2.956 5.12-5.389 6.898z"/><path fill="var(--color3, #afb1b8)" d="M11.699 24.167l.076.015c2.6-1.772 4.583-4.247 5.691-7.104s1.292-5.965.526-8.922l-4.054-3.862c1.64 3.175 2.3 6.728 1.903 10.246s-1.833 6.857-4.143 9.628zm13.749-9.442c-.689 2.961-2.362 5.632-4.77 7.616-.665.554-1.406 1.067-2.191 1.511l-.075.039c1.961-.549 3.764-1.52 5.269-2.838s2.672-2.947 3.412-4.763l-1.644-1.565z"/><path fill="var(--color3, #afb1b8)" d="M24.803 14.289l-2.341-2.23c-.045 2.543-.804 5.028-2.197 7.197s-3.372 3.943-5.729 5.137h.012c.554 0 1.1-.033 1.637-.096l-.065.006c2.203-.857 4.148-2.219 5.664-3.967s2.553-3.825 3.021-6.047zM12.038 2.664L9.245 0C6.748.919 4.601 2.535 3.084 4.636S.752 9.225.744 11.775c.009 2.818 1.005 5.552 2.829 7.77s4.372 3.793 7.242 4.476c2.561-2.973 4.061-6.647 4.281-10.488s-.851-7.648-3.058-10.869zm19.218 11.214c-.01-3.343-1.409-6.546-3.89-8.91s-5.843-3.696-9.352-3.706a13.678 13.678 0 00-4.741.841l17.099 16.291c.585-1.44.885-2.971.884-4.515z"/></symbol><symbol id="icon-client4" viewBox="0 0 32 32"><path fill="var(--color3, #afb1b8)" d="M4.961 12.532H4.96c-.905 0-1.638.715-1.638 1.597v.001c0 .882.734 1.597 1.638 1.597h.001c.905 0 1.638-.715 1.638-1.597v-.001c0-.882-.734-1.597-1.638-1.597zm12.094-.51c-.003-1.225-.503-2.399-1.392-3.265S13.57 7.403 12.313 7.4c-1.257.002-2.462.49-3.351 1.356s-1.39 2.041-1.392 3.266v6.754s9.484-1.029 9.485-6.753v-.001zM0 20.993c.002.852.351 1.669.969 2.272s1.456.942 2.331.945c.874-.002 1.712-.342 2.33-.945s.967-1.419.969-2.271v-4.7S0 17.011 0 20.993zm3.3.842h-.001a.8792.8792 0 01-.483-.144l.003.002a.8467.8467 0 01-.318-.378.8018.8018 0 01-.066-.322c0-.058.006-.115.018-.17l-.001.005c.036-.171.12-.318.236-.431a.8737.8737 0 01.437-.23l.006-.001c.051-.01.109-.016.168-.016.119 0 .233.024.337.066l-.006-.002c.158.064.293.172.388.31s.146.301.146.468v.003c0 .116-.024.226-.067.326l.002-.005a.8434.8434 0 01-.187.274.8486.8486 0 01-.275.181l-.006.002a.864.864 0 01-.331.064v-.003zm6.736-.523h-.675v.697h-.352v-1.706h1.111v.285h-.759v.441h.675v.284zm1.689-.117c0 .168-.03.315-.089.442s-.145.224-.255.293c-.11.069-.237.103-.38.103-.141 0-.268-.034-.379-.102s-.197-.165-.258-.291c-.061-.127-.092-.272-.093-.436v-.084c0-.168.03-.316.09-.443s.146-.226.257-.294c.111-.069.237-.103.38-.103s.268.034.379.103c.111.068.196.166.257.294s.091.275.091.442v.076zm-.356-.077c0-.179-.032-.315-.096-.408s-.155-.139-.274-.139c-.118 0-.209.046-.273.138s-.096.226-.097.403v.083c0 .174.032.309.096.405s.156.144.277.144c.118 0 .209-.046.272-.138s.095-.228.096-.405v-.083zm1.497.444c0-.066-.023-.117-.07-.152s-.131-.073-.253-.112c-.122-.04-.218-.079-.289-.117-.194-.105-.291-.246-.291-.423 0-.092.026-.174.077-.246s.127-.129.224-.17c.098-.041.207-.061.328-.061s.23.022.326.067c.095.044.169.106.221.186s.08.172.08.274h-.352c0-.078-.025-.139-.074-.182s-.118-.066-.207-.066c-.086 0-.153.018-.2.055s-.071.084-.071.143c0 .055.028.102.083.139s.139.073.247.105c.2.06.346.135.437.224s.137.2.137.333c0 .148-.056.264-.168.348s-.262.125-.451.125c-.131 0-.251-.024-.359-.071s-.19-.114-.247-.198c-.056-.084-.084-.18-.084-.291h.353c0 .188.113.282.338.282.084 0 .149-.017.196-.05s.07-.082.07-.143zm1.876-.974h-.523v1.421h-.352v-1.421h-.516v-.285h1.39v.285zm1.228.682h-.675v.457h.792v.282h-1.144v-1.706h1.141v.285h-.79v.407h.675v.275zm.955.115h-.28v.625h-.352v-1.706h.634c.202 0 .357.045.466.135s.164.217.164.381c0 .116-.025.214-.076.292s-.126.139-.228.185l.369.697v.016h-.377l-.32-.625zm-.28-.285h.284c.088 0 .157-.022.205-.067s.073-.107.073-.186c0-.08-.023-.144-.069-.19s-.115-.069-.21-.069h-.282v.512zm2.13.309v.601h-.352v-1.706h.666c.128 0 .241.023.337.07s.173.114.225.2c.052.086.079.184.079.294 0 .167-.057.299-.172.396s-.272.144-.475.144h-.308zm0-.285h.314c.093 0 .164-.022.212-.066s.074-.106.074-.187c0-.084-.025-.151-.074-.203s-.117-.078-.204-.08h-.322v.536zM21 21.27h-.675v.457h.792v.282h-1.144v-1.706h1.141v.285h-.79v.407h.675v.275zm1.631-.682h-.523v1.421h-.352v-1.421h-.516v-.285h1.39v.285zm1.228.682h-.675v.457h.792v.282h-1.144v-1.706h1.141v.285h-.79v.407h.675v.275zm.955.115h-.28v.625h-.352v-1.706h.634c.202 0 .357.045.466.135s.164.217.164.381c0 .116-.025.214-.076.292s-.126.139-.229.185l.369.697v.016h-.377l-.32-.625zm-.28-.285h.284c.088 0 .157-.022.205-.067s.073-.107.073-.186c0-.08-.023-.144-.069-.19s-.115-.069-.21-.069h-.282v.512zm2.066.462c0-.066-.023-.117-.07-.152s-.131-.073-.253-.112c-.122-.04-.218-.079-.289-.117-.194-.105-.291-.246-.291-.423 0-.092.026-.174.077-.246s.127-.129.224-.17c.098-.041.207-.061.328-.061s.23.022.326.067c.095.044.169.106.221.186s.08.172.08.274h-.352c0-.078-.025-.139-.074-.182s-.118-.066-.207-.066c-.086 0-.153.018-.2.055s-.071.084-.071.143c0 .055.028.102.083.139s.139.073.247.105c.2.06.346.135.437.224s.137.2.137.333c0 .148-.056.264-.168.348s-.262.125-.451.125c-.131 0-.251-.024-.359-.071s-.19-.114-.247-.198c-.056-.084-.084-.18-.084-.291h.353c0 .188.112.282.337.282.084 0 .149-.017.196-.05s.07-.082.07-.143z"/></symbol><symbol id="icon-client5" viewBox="0 0 32 32"><path fill="var(--color3, #afb1b8)" d="M2.434 24.557a.852.852 0 01.188.548c.001.013.001.028.001.043 0 .122-.025.237-.07.343l.002-.006a.8763.8763 0 01-.223.312l-.001.001c-.209.16-.473.256-.76.256-.03 0-.06-.001-.089-.003h.004H0v-3.474h1.455a1.2338 1.2338 0 01.809.233l-.004-.002a.7999.7999 0 01.282.65c.001.011.001.023.001.036 0 .187-.064.36-.171.497l.001-.002a.794.794 0 01-.438.271l-.005.001c.197.036.375.141.502.297zm-1.743-.524h.622c.013.001.028.002.043.002.133 0 .255-.044.354-.118l-.002.001a.4077.4077 0 00.105-.151l.001-.003a.4114.4114 0 00.029-.152c0-.012 0-.024-.002-.035v.002c.001-.009.001-.019.001-.03 0-.056-.011-.109-.03-.158l.001.003a.4279.4279 0 00-.104-.155.5973.5973 0 00-.359-.119c-.017 0-.034.001-.051.002h.002-.612v.911zm1.079 1.332a.4405.4405 0 00.114-.156l.001-.003a.4238.4238 0 00.033-.166c0-.01 0-.019-.001-.029v.001c0-.008.001-.016.001-.025 0-.132-.058-.25-.151-.331h-.001a.6358.6358 0 00-.383-.127c-.014 0-.028 0-.042.001h.002-.652v.955h.661c.011.001.024.001.038.001.143 0 .274-.046.382-.123l-.002.001zm3.639.686l-.81-1.358h-.304v1.358h-.696v-3.474h1.318a1.2939 1.2939 0 01.92.297l-.002-.002c.195.2.316.474.316.776 0 .249-.082.479-.22.664l.002-.003a1.07 1.07 0 01-.622.352l-.006.001.862 1.388H5.41zM4.295 24.22h.57c.396 0 .593-.175.593-.526.001-.009.001-.019.001-.029 0-.065-.012-.127-.034-.185l.001.004a.5077.5077 0 00-.114-.18.6125.6125 0 00-.395-.143c-.019 0-.037.001-.056.003h.002-.576l.007 1.057zm4.92 1.132H7.827l-.245.699h-.73l1.274-3.435h.789l1.269 3.435h-.73l-.24-.699zm-.186-.526l-.507-1.466-.507 1.466h1.014zm4.951 1.225h-.691l-1.55-2.362v2.362h-.69v-3.474h.69l1.55 2.376v-2.376h.691v3.474zm3.945-.832c-.145.263-.359.473-.617.609l-.008.004c-.267.138-.583.22-.918.22-.019 0-.038 0-.056-.001h.003-1.231v-3.474h1.231c.016 0 .035-.001.054-.001.334 0 .65.079.93.22l-.012-.005c.267.137.481.345.622.598l.004.008c.136.265.216.579.216.911 0 .332-.08.646-.222.923l.005-.011zm-.791-.083a1.27 1.27 0 00.306-.829c0-.304-.108-.598-.306-.829-.21-.185-.487-.298-.791-.298-.026 0-.052.001-.078.003h.004-.48v2.249h.48a.89.89 0 00.075.002c.303 0 .581-.113.792-.299l-.001.001zM9.648 3.254s8.923 3.382 8.734 8.277v8.278s-8.916-3.384-8.73-8.278l-.003-8.277zm16.683 14.617c1.597-1.117 3.527-1.868 5.615-2.093l.054-.005v-2.591c-2.345.907-4.333 2.552-5.669 4.689z"/><path fill="var(--color3, #afb1b8)" d="M25.318 18.652c1.379-2.788 3.77-4.94 6.682-6.013V5.172S19.293 9.99 19.561 16.96v11.786s.566-.216 1.457-.619c0-.377 0-.757.041-1.139.263-3.236 1.795-6.234 4.259-8.336z"/><path fill="var(--color3, #afb1b8)" d="M24.11 23.03c.074-.89.232-1.712.467-2.5l-.022.086a11.4105 11.4105 0 00-2.657 6.44c-.019.224-.029.448-.034.679.722-.348 1.562-.782 2.444-1.293-.152-.724-.239-1.556-.239-2.408 0-.354.015-.704.044-1.05l-.003.045zm.505.042c-.025.286-.039.619-.039.956 0 .755.071 1.493.208 2.208l-.012-.073c3.472-2.086 7.373-5.308 7.223-9.203v-.339a11.378 11.378 0 00-6.606 3.099c-.399.983-.675 2.122-.771 3.312l-.003.042z"/></symbol><symbol id="icon-client6" viewBox="0 0 32 32"><path fill="var(--color3, #afb1b8)" d="M16.086 15.408a1.174 1.174 0 01-.205-.74v-1.072c0-.329.068-.579.204-.749s.369-.256.701-.255c.311 0 .532.073.663.218.142.186.212.413.196.641v.252h-.557v-.255-.034c0-.076-.006-.151-.018-.224l.001.008a.2503.2503 0 00-.079-.148.295.295 0 00-.178-.059c-.008 0-.016 0-.024.001h.001a.319.319 0 00-.212.061.2914.2914 0 00-.092.164c-.014.073-.022.158-.022.244v.022-.001 1.301a.7145.7145 0 00.073.37l-.002-.004c.028.039.066.069.109.088l.002.001c.032.014.07.023.11.023.012 0 .023-.001.035-.002h-.001c.071.006.142-.016.197-.059a.2687.2687 0 00.083-.158c.011-.07.017-.151.017-.234v-.028.001-.264h.557v.241c.016.239-.052.476-.192.674-.128.159-.346.239-.666.239s-.562-.085-.699-.262zm2.318.011c-.141-.167-.211-.41-.211-.732v-1.128c0-.319.07-.56.211-.723s.376-.245.705-.244c.327 0 .561.081.702.244s.212.405.212.723v1.128c0 .319-.071.563-.214.731s-.376.252-.699.252-.564-.085-.705-.251zm.964-.271c.05-.105.073-.219.067-.334v-1.381c.001-.011.001-.024.001-.037 0-.105-.025-.205-.068-.294l.002.004a.2634.2634 0 00-.112-.089l-.002-.001a.2718.2718 0 00-.149-.019h.002c-.011-.002-.024-.002-.038-.002-.04 0-.077.008-.111.023l.002-.001c-.047.02-.085.05-.114.089l-.001.001a.638.638 0 00-.068.289c0 .014 0 .027.001.04v-.002 1.388c-.001.012-.001.026-.001.04 0 .107.025.208.07.298l-.002-.004c.032.035.071.063.115.082l.002.001c.045.019.094.029.143.029s.098-.01.143-.029c.046-.02.085-.048.117-.082v-.007zm1.324-2.524h.599l.451 2.081.461-2.081h.583l.059 3.004h-.431l-.046-2.088-.445 2.088h-.346l-.461-2.095-.043 2.095h-.436l.054-3.004zm2.825 0h.933c.538 0 .807.284.807.853 0 .545-.283.817-.849.816h-.318v1.335h-.576l.003-3.004zm.797 1.284a.418.418 0 00.169-.014.4019.4019 0 00.148-.081h-.001a.5237.5237 0 00.083-.339c0-.01.001-.022.001-.034 0-.085-.01-.167-.03-.246l.001.007a.2342.2342 0 00-.043-.083.231.231 0 00-.072-.06l-.001-.001a.5396.5396 0 00-.227-.049c-.011 0-.021 0-.032.001h.001-.224v.898h.224zm1.773-1.284h.619l.635 3.004h-.537l-.126-.693h-.552l-.129.693h-.545l.635-3.004zm.529 1.964l-.215-1.261-.215 1.261h.431zm1.238-1.964h.403l.772 1.714v-1.714h.478v3.004h-.384l-.777-1.789v1.789h-.494l.001-3.004zm2.774 1.859l-.642-1.854h.54l.392 1.191.368-1.191h.529l-.634 1.854v1.145h-.553v-1.145zm-13.652 2.459v.157h-.47v1.221h-.197v-1.221h-.472v-.157h1.14zm1.474 1.378h-.156a.0653.0653 0 01-.039-.013.075.075 0 01-.025-.031l-.136-.327h-.652l-.136.327a.0852.0852 0 01-.021.037.0683.0683 0 01-.04.013h-.155l.576-1.378h.201l.583 1.372zm-.954-.512h.544l-.23-.561a.966.966 0 01-.041-.122l-.002-.007c-.008.026-.015.051-.022.073l-.021.058-.228.56zm1.947.376c.036.002.072.002.108 0a.5473.5473 0 00.096-.017l-.004.001a.5596.5596 0 00.087-.027l-.004.002c.025-.01.051-.022.077-.034v-.31h-.232a.0436.0436 0 01-.029-.011.033.033 0 01-.012-.024v-.107h.447v.528a.831.831 0 01-.11.063l-.005.002a.8633.8633 0 01-.122.046l-.006.001a.875.875 0 01-.139.028h-.005c-.05.006-.108.009-.167.009h-.008a.8147.8147 0 01-.289-.053l.006.002a.7001.7001 0 01-.231-.144.6754.6754 0 01-.147-.214l-.002-.004a.7258.7258 0 01-.053-.276v-.01-.009c0-.1.019-.196.054-.284l-.002.005a.6428.6428 0 01.148-.218.6688.6688 0 01.226-.141l.005-.002a.8626.8626 0 01.298-.051h.012-.001c.054 0 .107.004.16.012.047.007.093.019.137.035s.082.034.118.056l-.003-.002c.035.022.069.046.1.072l-.055.085a.0656.0656 0 01-.018.019.0594.0594 0 01-.026.007.0638.0638 0 01-.036-.011.9458.9458 0 01-.059-.034l.003.002a.4626.4626 0 00-.074-.036l-.003-.001a.6483.6483 0 00-.102-.03l-.004-.001a.7576.7576 0 00-.139-.012h-.015a.622.622 0 00-.22.04l.004-.001a.465.465 0 00-.169.109.4881.4881 0 00-.107.171.7028.7028 0 00.001.465l-.002-.005c.025.065.064.124.115.173.047.047.105.084.168.109.055.018.118.029.183.029.016 0 .031-.001.047-.002h-.002zm1.837-.022h.629v.157h-.822v-1.378h.197l-.005 1.221zm1.284.157h-.197v-1.378h.197v1.378zm.733-1.371c.012.006.022.015.03.025l.842 1.039c-.001-.007-.001-.016-.001-.025s0-.017.001-.026v.001-1.027h.172v1.383H24.235a.0946.0946 0 01-.037-.008h.001a.1299.1299 0 01-.031-.026l-.841-1.037v1.071h-.165V16.94h.103c.012 0 .023.002.033.007h-.001zm2.494-.006v.152h-.698v.455h.566v.146h-.566v.47h.698v.152h-.901v-1.375h.901zM5.143 8.433l8.75 2.352v8.242l-8.75-2.351V8.433zm-.561-.703v9.346l9.871 2.654v-9.345L4.582 7.73z"/><path fill="var(--color3, #afb1b8)" d="M9.872 24.068L0 21.412v-9.345l9.872 2.655v9.346z"/><path fill="var(--color3, #afb1b8)" d="M4.745 8.327l8.636 2.322-3.672 3.478-8.637-2.324 3.674-3.477zm-.163-.597L0 12.067l9.872 2.655 4.581-4.337L4.582 7.73zm5.846 15.813l4.025-3.811-4.025-1.083v4.895z"/></symbol><symbol id="icon-clock1" viewBox="0 0 32 32"><path fill="var(--color2, #212121)" d="M31.297 15.301C31.295 6.849 24.442-.002 15.989 0S.686 6.855.688 15.308c.001 6.658 4.307 12.551 10.649 14.576.061.019.124.029.187.029.126 0 .245-.035.346-.095l-.003.002a.639.639 0 00.282-.352l.001-.005 3.865-12.25c1.057-.005 1.909-.866 1.903-1.923s-.866-1.909-1.923-1.903c-.299.001-.581.072-.831.196l.011-.005-5.106-5.107a.6372.6372 0 00-.902.016.637.637 0 000 .886l5.103 5.109c-.392.799-.168 1.764.536 2.309l-3.683 11.673C3.845 25.783.119 17.71 2.8 10.432S13.554-.572 20.832 2.109c7.278 2.681 11.004 10.754 8.323 18.032-1.345 3.581-4.003 6.406-7.374 7.938l-.088.036-.398-1.874a.638.638 0 00-.756-.492.639.639 0 00-.293.149l.001-.001-3.837 3.426a.6366.6366 0 00-.052.9c.076.085.174.149.283.184l4.899 1.563c.335.108.694-.077.802-.412a.6375.6375 0 00.031-.195c0-.047-.005-.092-.015-.136l.001.004-.391-1.839c5.664-2.388 9.342-7.942 9.329-14.089zm-15.305-.637c.352 0 .638.286.638.638s-.286.638-.638.638c-.352 0-.638-.285-.638-.638s.285-.638.638-.638zm2.101 14.864l2.184-1.948.603 2.84-2.787-.892z"/><path fill="var(--color1, #2196f3)" d="M15.354 3.185V4.46c0 .352.285.638.638.638s.638-.285.638-.638V3.185c0-.352-.286-.638-.638-.638s-.638.286-.638.638zM3.876 14.664c-.352 0-.638.286-.638.638s.285.638.638.638h1.275c.352 0 .638-.285.638-.638s-.285-.638-.638-.638H3.876zm24.232 1.275c.352 0 .638-.285.638-.638s-.285-.638-.638-.638h-1.275c-.352 0-.638.286-.638.638s.286.638.638.638h1.275z"/></symbol><symbol id="icon-diagram1" viewBox="0 0 32 32"><path fill="var(--color1, #2196f3)" d="M14.926 14.965h1.066v4.798h-1.066v-4.797zm4.264 2.132h1.066v2.665H19.19v-2.665zm-8.529 1.599h1.066v1.066h-1.066v-1.066zm-3.198-.533h1.066v1.599H7.463v-1.599z"/><path fill="var(--color2, #212121)" d="M1.599 28.291h25.587c.883 0 1.599-.716 1.599-1.599V24.56c0-.883-.716-1.599-1.599-1.599h-.533V9.668L29.681 6.8c.703.346 1.553.136 2.013-.499s.396-1.508-.152-2.068-1.42-.644-2.065-.198a1.609 1.609 0 00-.542 2.002L26.654 8.2V6.97c0-.883-.716-1.599-1.599-1.599H3.733c-.883 0-1.599.716-1.599 1.599v15.992h-.533c-.883 0-1.599.716-1.599 1.599v2.132c0 .883.716 1.599 1.599 1.599zM30.384 4.837c.294 0 .533.239.533.533s-.239.533-.533.533c-.294 0-.533-.239-.533-.533s.239-.533.533-.533zM3.198 6.969c0-.294.239-.533.533-.533h21.322c.294 0 .533.239.533.533v2.239l-1.066 1.013V8.035c0-.294-.239-.533-.533-.533H4.797c-.294 0-.533.239-.533.533v13.326c0 .294.239.533.533.533h19.19c.294 0 .533-.239.533-.533v-9.674l1.066-1.01v12.284H3.198V6.969zm4.798 6.93c-.721-.002-1.354.478-1.546 1.174s.105 1.433.725 1.801c.62.368 1.41.276 1.928-.226l1.853.93a.5341.5341 0 00.636-.122v-.001l3.939-4.431 3.872 2.901a.5355.5355 0 00.687-.04l3.365-3.188v8.131H5.331V8.568h18.124v2.66L19.684 14.8l-3.904-2.927a.5332.5332 0 00-.718.072l-3.993 4.493-1.493-.746c.01-.056.017-.123.02-.19v-.003c0-.883-.716-1.599-1.599-1.599zm.533 1.599c0 .294-.239.533-.533.533s-.533-.239-.533-.533c0-.294.239-.533.533-.533s.533.239.533.533zm3.198 8.528h5.331v.533c0 .294-.239.533-.533.533h-4.264a.5335.5335 0 01-.533-.533v-.533zm-10.661.534c0-.294.239-.533.533-.533h9.062v.533c0 .883.716 1.599 1.599 1.599h4.264c.883 0 1.599-.716 1.599-1.599v-.533h9.062c.294 0 .533.239.533.533v2.132c0 .294-.239.533-.533.533H1.598a.5335.5335 0 01-.533-.533V24.56z"/></symbol><symbol id="icon-mail" viewBox="0 0 32 32"><path fill="var(--color4, #757575)" d="M29 4.25H3c-1.654 0-3 1.256-3 2.8v16.803c0 1.544 1.346 2.801 3 2.801h26c1.654 0 3-1.256 3-2.801V7.05c0-1.544-1.346-2.8-3-2.8zm0 1.867c.138 0 .27.027.39.075l-.007-.003L16 17.017 2.617 6.189c.114-.046.245-.072.383-.072h26zm0 18.67H3c-.552 0-1-.418-1-.933V8.162l13.345 10.796c.177.142.404.228.651.228h.01c.247 0 .474-.086.652-.23l-.002.002L30.001 8.162v15.692c0 .515-.448.933-1 .933z"/></symbol><symbol id="icon-facebook" viewBox="0 0 32 32"><path fill="var(--color3, #afb1b8)" d="M18.422 11.142h1.328V8.829c-.229-.031-1.017-.102-1.935-.102-1.915 0-3.226 1.204-3.226 3.418v2.037h-2.113v2.585h2.113v6.505h2.59v-6.505h2.027l.322-2.585h-2.35v-1.781c.001-.747.202-1.259 1.243-1.259z"/></symbol><symbol id="icon-fb" viewBox="0 0 32 32"><path fill="var(--color5, #fff)" d="M21.329 5.313h2.921V.225C23.746.156 22.013 0 19.994 0c-4.212 0-7.097 2.649-7.097 7.519V12H8.249v5.688h4.648V32h5.699V17.689h4.46l.708-5.688h-5.169V8.082c.001-1.644.444-2.769 2.735-2.769z"/></symbol><symbol id="icon-iconsend" viewBox="0 0 32 32"><path fill="var(--color5, #fff)" d="M32 0L0 18l10.227 3.788L26 7 14.002 23.186l.01.004-.012-.004V32l5.735-6.691L27 28l5-28z"/></symbol><symbol id="icon-inst" viewBox="0 0 32 32"><path fill="var(--color5, #fff)" d="M31.969 9.408c-.075-1.7-.35-2.869-.744-3.882-.406-1.075-1.032-2.038-1.851-2.838A7.8895 7.8895 0 0026.596.862l-.054-.018C25.523.45 24.36.175 22.66.1 20.947.019 20.403 0 16.059 0s-4.888.019-6.595.094c-1.7.075-2.869.35-3.882.744-1.075.406-2.038 1.031-2.838 1.85A7.8895 7.8895 0 00.918 5.466L.9 5.52C.506 6.539.231 7.701.156 9.402c-.081 1.713-.1 2.257-.1 6.602s.019 4.888.094 6.595c.075 1.7.35 2.869.744 3.882.427 1.11 1.056 2.057 1.849 2.837l.001.001c.78.792 1.724 1.419 2.778 1.826l.054.018c1.019.394 2.182.669 3.882.744 1.706.075 2.25.094 6.595.094s4.888-.019 6.595-.094c1.7-.075 2.869-.35 3.882-.744 2.157-.85 3.832-2.525 4.663-4.627l.019-.055c.394-1.019.669-2.182.744-3.882.075-1.707.094-2.251.094-6.595s-.006-4.888-.081-6.595zm-2.882 13.065c-.069 1.563-.331 2.407-.55 2.969-.551 1.4-1.639 2.487-3.002 3.026l-.036.013c-.563.219-1.413.481-2.969.55-1.688.075-2.194.094-6.464.094s-4.782-.019-6.464-.094c-1.563-.069-2.407-.331-2.969-.55-.694-.256-1.325-.663-1.838-1.194a4.9797 4.9797 0 01-1.183-1.804l-.011-.034c-.219-.563-.481-1.413-.55-2.969-.075-1.688-.094-2.194-.094-6.464s.019-4.782.094-6.464c.069-1.563.331-2.407.55-2.969.256-.694.663-1.325 1.2-1.838a4.9797 4.9797 0 011.804-1.183l.034-.011c.563-.219 1.413-.481 2.969-.55 1.688-.075 2.194-.094 6.464-.094 4.276 0 4.782.019 6.464.094 1.563.069 2.407.331 2.969.55.694.256 1.325.662 1.838 1.194.531.519.938 1.144 1.194 1.838.219.563.481 1.413.55 2.969.075 1.688.094 2.194.094 6.464s-.019 4.77-.094 6.458z"/><path fill="var(--color5, #fff)" d="M16.059 7.783c-4.538 0-8.22 3.682-8.22 8.22s3.682 8.22 8.22 8.22c4.539 0 8.22-3.682 8.22-8.22s-3.682-8.22-8.22-8.22zm0 13.553c-2.944 0-5.332-2.388-5.332-5.332s2.388-5.332 5.332-5.332 5.332 2.388 5.332 5.332-2.388 5.332-5.332 5.332zM26.524 7.458c0 1.06-.859 1.919-1.919 1.919s-1.919-.859-1.919-1.919.859-1.919 1.919-1.919 1.919.859 1.919 1.919z"/></symbol><symbol id="icon-instagram" viewBox="0 0 32 32"><path fill="var(--color3, #afb1b8)" d="M23.258 13.004c-.034-.773-.159-1.304-.338-1.765-.185-.489-.469-.926-.841-1.29-.354-.36-.784-.645-1.263-.83l-.024-.008c-.463-.179-.992-.304-1.764-.338-.779-.037-1.026-.046-3.001-.046s-2.222.009-2.998.043c-.773.034-1.304.159-1.764.338-.489.185-.926.469-1.29.841-.36.354-.645.784-.83 1.263l-.008.024c-.179.463-.304.992-.338 1.764-.037.779-.045 1.026-.045 3.001s.008 2.222.043 2.998c.034.773.159 1.304.338 1.765.194.505.48.935.841 1.289h.001c.354.36.784.645 1.263.83l.024.008c.463.179.992.304 1.765.338.776.034 1.023.043 2.998.043s2.222-.008 2.998-.043c.773-.034 1.304-.159 1.764-.338.98-.386 1.742-1.148 2.12-2.103l.009-.025c.179-.463.304-.992.338-1.765.034-.776.043-1.023.043-2.998s-.003-2.222-.037-2.998zm-1.309 5.938c-.031.71-.151 1.094-.25 1.35-.251.636-.745 1.13-1.365 1.375l-.016.006c-.256.099-.642.219-1.35.25-.767.034-.997.043-2.938.043s-2.174-.008-2.938-.043c-.71-.031-1.094-.15-1.35-.25a2.228 2.228 0 01-.835-.543c-.235-.229-.42-.508-.538-.82l-.005-.016c-.099-.256-.219-.642-.25-1.35-.034-.767-.043-.997-.043-2.938s.008-2.174.043-2.938c.031-.71.151-1.094.25-1.35.117-.315.301-.602.546-.835.229-.235.508-.42.82-.538l.016-.005c.256-.099.642-.219 1.35-.25.767-.034.997-.043 2.938-.043 1.944 0 2.174.008 2.938.043.71.031 1.094.151 1.35.25.315.116.602.301.835.543.241.236.426.52.543.835.099.256.219.642.25 1.35.034.767.043.997.043 2.938s-.009 2.168-.043 2.935z"/><path fill="var(--color3, #afb1b8)" d="M16.027 12.265c-2.063 0-3.736 1.674-3.736 3.737s1.674 3.736 3.736 3.736c2.063 0 3.737-1.674 3.737-3.736s-1.674-3.737-3.737-3.737zm0 6.16c-1.338 0-2.424-1.085-2.424-2.424s1.086-2.424 2.424-2.424c1.338 0 2.424 1.085 2.424 2.424s-1.085 2.424-2.424 2.424zm4.757-6.308c0 .482-.391.872-.872.872s-.872-.391-.872-.872c0-.482.391-.872.872-.872s.872.39.872.872z"/></symbol><symbol id="icon-lin" viewBox="0 0 32 32"><path fill="var(--color5, #fff)" d="M31.992 32v-.001H32V20.263c0-5.741-1.236-10.164-7.948-10.164-3.227 0-5.392 1.771-6.276 3.449h-.093v-2.913h-6.364v21.364h6.627V21.42c0-2.785.528-5.479 3.977-5.479 3.399 0 3.449 3.179 3.449 5.657v10.401h6.62zM.528 10.636h6.635V32H.528V10.636zM3.843 0C1.722 0 0 1.721 0 3.843s1.721 3.879 3.843 3.879c2.121 0 3.843-1.757 3.843-3.879C7.685 1.722 5.963 0 3.843 0z"/></symbol><symbol id="icon-linkin" viewBox="0 0 32 32"><path fill="var(--color3, #afb1b8)" d="M23.269 23.273v-.001h.004v-5.335c0-2.61-.562-4.62-3.613-4.62-1.467 0-2.451.805-2.853 1.568h-.042v-1.324h-2.893v9.711h3.012v-4.809c0-1.266.24-2.49 1.808-2.49 1.545 0 1.568 1.445 1.568 2.572v4.728h3.009zM8.967 13.562h3.016v9.711H8.967v-9.711zm1.507-4.835c-.964 0-1.747.782-1.747 1.747s.782 1.763 1.747 1.763c.964 0 1.747-.799 1.747-1.763s-.783-1.747-1.747-1.747z"/></symbol><symbol id="icon-smartphone" viewBox="0 0 32 32"><path fill="var(--color4, #757575)" d="M23.467.13H8.534c-1.765 0-3.2 1.34-3.2 2.987v25.889c0 1.647 1.435 2.987 3.2 2.987h14.933c1.764 0 3.2-1.34 3.2-2.987V3.117c0-1.647-1.436-2.987-3.2-2.987zM8.533 2.121h14.933c.589 0 1.067.446 1.067.996v20.91H7.466V3.117c0-.549.478-.996 1.067-.996zm14.934 27.881H8.534c-.589 0-1.067-.447-1.067-.996v-2.987h17.067v2.987c0 .549-.478.996-1.067.996z"/><path fill="var(--color4, #757575)" d="M10.354 27.306c.417.389.417 1.02 0 1.409s-1.092.389-1.508 0c-.417-.389-.417-1.02 0-1.409s1.092-.389 1.508 0z"/></symbol><symbol id="icon-twi" viewBox="0 0 32 32"><path fill="var(--color5, #fff)" d="M32 6.078c-1.19.522-2.458.868-3.78 1.036 1.36-.812 2.398-2.088 2.886-3.626-1.268.756-2.668 1.29-4.16 1.588C25.742 3.794 24.026 3 22.154 3c-3.632 0-6.556 2.948-6.556 6.562 0 .52.044 1.02.152 1.496-5.454-.266-10.28-2.88-13.522-6.862-.566.982-.898 2.106-.898 3.316 0 2.272 1.17 4.286 2.914 5.452-1.054-.02-2.088-.326-2.964-.808v.072c0 3.188 2.274 5.836 5.256 6.446-.534.146-1.116.216-1.72.216-.42 0-.844-.024-1.242-.112.85 2.598 3.262 4.508 6.13 4.57-2.214 1.744-5.044 2.798-8.12 2.798h-.015.001c-.538 0-1.054-.024-1.57-.09C2.906 27.93 6.35 29 10.064 29c12.072 0 18.672-10 18.672-18.668 0-.29-.01-.57-.024-.848C30.014 8.56 31.108 7.406 32 6.078z"/></symbol><symbol id="icon-twitter" viewBox="0 0 32 32"><path fill="var(--color3, #afb1b8)" d="M23.273 11.49c-.541.237-1.117.394-1.718.471.618-.369 1.09-.949 1.312-1.648-.576.344-1.213.586-1.891.722a2.9864 2.9864 0 00-2.178-.944c-1.651 0-2.98 1.34-2.98 2.983 0 .236.02.464.069.68-2.479-.121-4.673-1.309-6.146-3.119-.257.446-.408.957-.408 1.507 0 1.033.532 1.948 1.325 2.478-.479-.009-.949-.148-1.347-.367v.033c0 1.449 1.034 2.653 2.389 2.93-.243.066-.507.098-.782.098-.191 0-.384-.011-.565-.051.386 1.181 1.483 2.049 2.786 2.077-1.007.793-2.293 1.272-3.691 1.272h-.007c-.245 0-.479-.011-.714-.041 1.321.852 2.886 1.338 4.575 1.338 5.487 0 8.487-4.545 8.487-8.485 0-.132-.005-.259-.011-.385.592-.42 1.089-.944 1.495-1.548z"/></symbol></defs></svg>